<svg xmlns="http://www.w3.org/2000/svg" xmlns:xlink="http://www.w3.org/1999/xlink" width="223.138" height="190.515" viewBox="0 0 223.138 190.515">
  <defs>
    <clipPath id="clip-path">
      <rect width="103.826" height="18.877" fill="none"/>
    </clipPath>
  </defs>
  <g id="Group_2434" data-name="Group 2434" transform="translate(-67.703 -177.272)">
    <g id="Group_2420" data-name="Group 2420" transform="translate(78.868 245.286)">
      <g id="undraw_upvote_re_qn2k" transform="translate(11.968)">
        <path id="Path_7688" data-name="Path 7688" d="M443.837,322.584H292.422a3.9,3.9,0,0,1-3.9-3.9V225.32a2.859,2.859,0,0,1,2.856-2.856H444.83a2.909,2.909,0,0,1,2.905,2.906v93.316A3.9,3.9,0,0,1,443.837,322.584Z" transform="translate(-288.469 -219.91)" fill="#657180" opacity="0.069"/>
        <path id="Path_7689" data-name="Path 7689" d="M456.886,342.8H315.771a3.642,3.642,0,0,1-3.752-3.513v-81.3a2.7,2.7,0,0,1,2.78-2.605H457.812a2.745,2.745,0,0,1,2.826,2.648v81.261A3.642,3.642,0,0,1,456.886,342.8Z" transform="translate(-306.413 -245.044)" fill="#fff"/>
        <path id="Path_7690" data-name="Path 7690" d="M447.5,217.553H288.292v-1.985a3.916,3.916,0,0,1,3.913-3.91H443.592a3.916,3.916,0,0,1,3.913,3.91Z" transform="translate(-288.292 -211.658)" fill="#0e0071"/>
        <circle id="Ellipse_3627" data-name="Ellipse 3627" cx="1.012" cy="1.012" r="1.012" transform="translate(6.099 1.941)" fill="#fff"/>
        <circle id="Ellipse_3628" data-name="Ellipse 3628" cx="1.012" cy="1.012" r="1.012" transform="translate(9.94 1.941)" fill="#fff"/>
        <circle id="Ellipse_3629" data-name="Ellipse 3629" cx="1.012" cy="1.012" r="1.012" transform="translate(13.782 1.941)" fill="#fff"/>
        <rect id="Rectangle_711" data-name="Rectangle 711" width="90.003" height="9.694" rx="4.847" transform="translate(48.008 48.264)" fill="#eff0f2"/>
        <rect id="Rectangle_712" data-name="Rectangle 712" width="90.003" height="9.694" rx="4.847" transform="translate(48.008 64.305)" fill="#eff0f2"/>
        <circle id="Ellipse_3630" data-name="Ellipse 3630" cx="4.962" cy="4.962" r="4.962" transform="translate(34.54 48.149)" fill="#0070fc"/>
        <path id="Path_7691" data-name="Path 7691" d="M451.318,429.385l-1.507-1.62a.362.362,0,0,0-.53,0l-1.507,1.62a.236.236,0,1,0,.346.322l1.189-1.279v3.14a.236.236,0,0,0,.473,0v-3.141l1.189,1.28a.236.236,0,0,0,.346-.322Z" transform="translate(-410.044 -376.616)" fill="#fff"/>
        <circle id="Ellipse_3631" data-name="Ellipse 3631" cx="4.962" cy="4.962" r="4.962" transform="translate(34.54 64.19)" fill="#e6e6e6"/>
        <path id="Path_7692" data-name="Path 7692" d="M451.318,497.274l-1.507-1.62a.362.362,0,0,0-.53,0l-1.507,1.62a.236.236,0,1,0,.346.322l1.189-1.279v3.14a.236.236,0,0,0,.473,0v-3.141l1.189,1.28a.236.236,0,1,0,.346-.322Z" transform="translate(-410.044 -428.464)" fill="#fff"/>
        <path id="Path_7693" data-name="Path 7693" d="M451.318,361.5l-1.507-1.62a.362.362,0,0,0-.53,0l-1.507,1.62a.236.236,0,0,0,.346.322l1.189-1.279v3.14a.236.236,0,0,0,.473,0v-3.141l1.189,1.28a.237.237,0,1,0,.346-.322Z" transform="translate(-410.044 -324.767)" fill="#fff"/>
        <g id="star_border_black_24dp_1_" data-name="star_border_black_24dp (1)" transform="translate(32.669 20.494)" clip-path="url(#clip-path)">
          <g id="star_border_black_24dp_1_2" data-name="star_border_black_24dp (1)">
            <path id="Path_176" data-name="Path 176" d="M0,0H16V16H0Z" fill="none"/>
            <path id="Path_177" data-name="Path 177" d="M14,6.192,9.686,5.833,8,2,6.314,5.838,2,6.192,5.276,8.93,4.292,13,8,10.841,11.708,13,10.73,8.93ZM8,9.758,5.744,11.072l.6-2.478L4.352,6.927l2.628-.22L8,4.374,9.026,6.713l2.628.22L9.662,8.6l.6,2.478Z" fill="#fa0"/>
          </g>
          <g id="star_border_black_24dp_1_3" data-name="star_border_black_24dp (1)" transform="translate(16)">
            <path id="Path_176-2" data-name="Path 176" d="M0,0H16V16H0Z" fill="none"/>
            <path id="Path_177-2" data-name="Path 177" d="M14,6.192,9.686,5.833,8,2,6.314,5.838,2,6.192,5.276,8.93,4.292,13,8,10.841,11.708,13,10.73,8.93ZM8,9.758,5.744,11.072l.6-2.478L4.352,6.927l2.628-.22L8,4.374,9.026,6.713l2.628.22L9.662,8.6l.6,2.478Z" fill="#fa0"/>
          </g>
          <g id="star_border_black_24dp_1_4" data-name="star_border_black_24dp (1)" transform="translate(32)">
            <path id="Path_176-3" data-name="Path 176" d="M0,0H16V16H0Z" fill="none"/>
            <path id="Path_177-3" data-name="Path 177" d="M14,6.192,9.686,5.833,8,2,6.314,5.838,2,6.192,5.276,8.93,4.292,13,8,10.841,11.708,13,10.73,8.93ZM8,9.758,5.744,11.072l.6-2.478L4.352,6.927l2.628-.22L8,4.374,9.026,6.713l2.628.22L9.662,8.6l.6,2.478Z" fill="#fa0"/>
          </g>
          <g id="star_border_black_24dp_1_5" data-name="star_border_black_24dp (1)" transform="translate(48)">
            <path id="Path_176-4" data-name="Path 176" d="M0,0H16V16H0Z" fill="none"/>
            <path id="Path_177-4" data-name="Path 177" d="M14,6.192,9.686,5.833,8,2,6.314,5.838,2,6.192,5.276,8.93,4.292,13,8,10.841,11.708,13,10.73,8.93ZM8,9.758,5.744,11.072l.6-2.478L4.352,6.927l2.628-.22L8,4.374,9.026,6.713l2.628.22L9.662,8.6l.6,2.478Z" fill="#fa0"/>
          </g>
          <g id="star_border_black_24dp_1_6" data-name="star_border_black_24dp (1)" transform="translate(64)">
            <path id="Path_176-5" data-name="Path 176" d="M0,0H16V16H0Z" fill="none"/>
            <path id="Path_177-5" data-name="Path 177" d="M14,6.192,9.686,5.833,8,2,6.314,5.838,2,6.192,5.276,8.93,4.292,13,8,10.841,11.708,13,10.73,8.93ZM8,9.758,5.744,11.072l.6-2.478L4.352,6.927l2.628-.22L8,4.374,9.026,6.713l2.628.22L9.662,8.6l.6,2.478Z" fill="#fa0"/>
          </g>
          <g id="star_border_black_24dp_1_7" data-name="star_border_black_24dp (1)" transform="translate(80)">
            <path id="Path_176-6" data-name="Path 176" d="M0,0H16V16H0Z" fill="none"/>
            <path id="Path_177-6" data-name="Path 177" d="M14,6.192,9.686,5.833,8,2,6.314,5.838,2,6.192,5.276,8.93,4.292,13,8,10.841,11.708,13,10.73,8.93ZM8,9.758,5.744,11.072l.6-2.478L4.352,6.927l2.628-.22L8,4.374,9.026,6.713l2.628.22L9.662,8.6l.6,2.478Z" fill="#fa0"/>
          </g>
          <g id="star_border_black_24dp_1_8" data-name="star_border_black_24dp (1)" transform="translate(96)">
            <path id="Path_176-7" data-name="Path 176" d="M0,0H16V16H0Z" fill="none"/>
            <path id="Path_177-7" data-name="Path 177" d="M14,6.192,9.686,5.833,8,2,6.314,5.838,2,6.192,5.276,8.93,4.292,13,8,10.841,11.708,13,10.73,8.93ZM8,9.758,5.744,11.072l.6-2.478L4.352,6.927l2.628-.22L8,4.374,9.026,6.713l2.628.22L9.662,8.6l.6,2.478Z" fill="#fa0"/>
          </g>
        </g>
      </g>
      <g id="Group_2416" data-name="Group 2416" transform="translate(0 36.733)">
        <g id="Group_2417" data-name="Group 2417" transform="translate(6.355 0)">
          <g id="Group_2416-2" data-name="Group 2416" transform="translate(1.826)">
            <path id="Path_7694" data-name="Path 7694" d="M401.72,367.956a2.216,2.216,0,0,0-2.421,2.384l-7.207,3.172,3.438,2.219,6.317-3.353a2.228,2.228,0,0,0-.127-4.423Z" transform="translate(-367.193 -352.143)" fill="#ffb6b6"/>
            <circle id="Ellipse_3633" data-name="Ellipse 3633" cx="5.412" cy="5.412" r="5.412" transform="translate(0.998 1.194)" fill="#ffb6b6"/>
            <path id="Path_7695" data-name="Path 7695" d="M110.665,427.163h2.7l1.285-10.42h-3.987Z" transform="translate(-94.936 -344.182)" fill="#ffb6b6"/>
            <path id="Path_7696" data-name="Path 7696" d="M345.178,671.685H350.5a3.39,3.39,0,0,1,3.391,3.391v.11h-8.711Z" transform="translate(-330.19 -589.587)" fill="#2f2e41"/>
            <path id="Path_7697" data-name="Path 7697" d="M59.665,427.163h2.7l1.285-10.42H59.665Z" transform="translate(-54.862 -344.182)" fill="#ffb6b6"/>
            <path id="Path_7698" data-name="Path 7698" d="M294.178,671.685H299.5a3.39,3.39,0,0,1,3.391,3.391v.11h-8.711Z" transform="translate(-289.9 -589.587)" fill="#2f2e41"/>
            <path id="Path_7699" data-name="Path 7699" d="M293.272,521.781a.992.992,0,0,1-.336-.74l-.127-39.048,14.108-.544.1,0,2.32,23.422.291,14.921a.988.988,0,0,1-.876,1l-3.424.4a.991.991,0,0,1-1.107-.946l-.61-15.852-2.96-9.869a.331.331,0,0,0-.63.122l-1.152,25.95a.99.99,0,0,1-.869.933l-3.955.487A.99.99,0,0,1,293.272,521.781Z" transform="translate(-288.833 -441.268)" fill="#b2bfd0"/>
            <path id="Path_7702" data-name="Path 7702" d="M279.081,307.173a2.845,2.845,0,0,1-1.233-.255c-.173-.076-.352-.138-.524-.214a4.905,4.905,0,0,1-2.56-4.382,6.678,6.678,0,0,1,2.063-4.859,7.428,7.428,0,0,1,4.5-1.943,4.792,4.792,0,0,1,4.7,2.02,1.949,1.949,0,0,1,.289,1.516.993.993,0,0,1-.24.42c-.437.444-.873.11-1.319.081a1.5,1.5,0,0,0-1.36,1.188,4.067,4.067,0,0,0,.049,2.069l0,.013a1.135,1.135,0,0,1-1,1.383,5.283,5.283,0,0,1-1.625,0,.916.916,0,0,0-1.21.279,1.677,1.677,0,0,0-.153.5C279.248,306.117,279.3,306.05,279.081,307.173Z" transform="translate(-274.765 -295.494)" fill="#2f2e41"/>
          </g>
          <path id="Path_7703" data-name="Path 7703" d="M273.171,491.774a2.216,2.216,0,0,0-.787-3.305l1.015-7.809-3.678,1.794-.4,7.14a2.228,2.228,0,0,0,3.85,2.18Z" transform="translate(-268.559 -440.295)" fill="#ffb6b6"/>
          <g id="Group_2418" data-name="Group 2418" transform="translate(0 13.607)">
            <path id="Path_7700" data-name="Path 7700" d="M274.994,387.237l-4.18-16.974c-1.3-5.289,1.673-10.615,6.632-11.871a8.417,8.417,0,0,1,6.855,1.222,9.725,9.725,0,0,1,4.116,6.785l2.73,20.095a.992.992,0,0,1-.957,1.125l-14.209.372h-.026A1,1,0,0,1,274.994,387.237Z" transform="translate(-269.62 -358.13)" fill="#0e0071"/>
            <path id="Path_7701" data-name="Path 7701" d="M325.742,376.921l-10.6-5.147a3.56,3.56,0,1,1,3.624-6.1l8.574,6.123,9.256-3.686a.988.988,0,0,1,1.087.24l1.248,1.318a.991.991,0,0,1-.176,1.511l-8.286,5.436A4.822,4.822,0,0,1,325.742,376.921Z" transform="translate(-303.814 -363.466)" fill="#0e0071"/>
            <path id="Path_7704" data-name="Path 7704" d="M271.511,405.1a1.019,1.019,0,0,1-.207.048l-3.712.469a.992.992,0,0,1-1.116-.985l.029-25.919a3.143,3.143,0,0,1,2.68-3.091h0a3.127,3.127,0,0,1,3.559,3.395l-1.078,11.17.506,13.941A.986.986,0,0,1,271.511,405.1Z" transform="translate(-266.477 -371.801)" fill="#0e0071"/>
          </g>
        </g>
        <path id="Path_7705" data-name="Path 7705" d="M282.3,686.783H237.854a.22.22,0,0,1,0-.441H282.3a.22.22,0,0,1,0,.441Z" transform="translate(-237.638 -601.015)" fill="#ccc"/>
      </g>
    </g>
    <g id="Group_2412" data-name="Group 2412" transform="translate(67.703 177.272)">
      <ellipse id="Ellipse_44" data-name="Ellipse 44" cx="5.412" cy="5.412" rx="5.412" ry="5.412" transform="translate(58.097)" fill="#00c158" opacity="0.4"/>
      <ellipse id="Ellipse_44-2" data-name="Ellipse 44" cx="5.412" cy="5.412" rx="5.412" ry="5.412" transform="translate(195.482 147.812)" fill="#ba0101"/>
      <ellipse id="Ellipse_44-3" data-name="Ellipse 44" cx="3.3" cy="3.3" rx="3.3" ry="3.3" transform="translate(0 33.961)" fill="#fa0"/>
      <ellipse id="Ellipse_44-4" data-name="Ellipse 44" cx="3.3" cy="3.3" rx="3.3" ry="3.3" transform="translate(216.539 59.816)" fill="#fa0"/>
      <ellipse id="Ellipse_44-5" data-name="Ellipse 44" cx="3.3" cy="3.3" rx="3.3" ry="3.3" transform="translate(135.431 10.824)" fill="#0070fc"/>
    </g>
  </g>
</svg>
