<svg xmlns="http://www.w3.org/2000/svg" width="168.829" height="148.579" viewBox="0 0 168.829 148.579">
  <g id="Group_2330" data-name="Group 2330" transform="translate(-101.171 -174.42)">
    <g id="undraw_online_posts_re_7ucl" transform="translate(122.581 211.568)">
      <path id="Path_7602" data-name="Path 7602" d="M997.281,681c-.506-4.069-3.028-8.079-6.909-9.4a18.894,18.894,0,0,1,0,12.972c-.6,1.613-1.428,3.345-.867,4.971a4.223,4.223,0,0,0,2.157,2.269,12.542,12.542,0,0,0,3.06.941l.206.17C996.588,689.166,997.787,685.065,997.281,681Z" transform="translate(-860.859 -582.076)" fill="#f0f0f0"/>
      <path id="Path_7603" data-name="Path 7603" d="M995.835,671.19a16.148,16.148,0,0,1,4.015,9.089,6.952,6.952,0,0,1-.079,2.177,3.989,3.989,0,0,1-.992,1.85,8.26,8.26,0,0,0-1.281,1.533,2.443,2.443,0,0,0-.119,1.994,6.345,6.345,0,0,0,1.406,2.1,6.232,6.232,0,0,1,1.562,2.332c.032.112.2.055.172-.057-.465-1.605-2.024-2.517-2.767-3.963a2.473,2.473,0,0,1-.167-2.17,6.4,6.4,0,0,1,1.271-1.581,4.256,4.256,0,0,0,1.037-1.773,6.432,6.432,0,0,0,.163-2.166,15.672,15.672,0,0,0-1.144-4.761,16.434,16.434,0,0,0-2.955-4.736C995.877,670.968,995.758,671.1,995.835,671.19Z" transform="translate(-866.36 -581.597)" fill="#fff"/>
      <path id="Path_7604" data-name="Path 7604" d="M1021.316,709.95a2.423,2.423,0,0,0,1.844-2.538c-.009-.116-.19-.107-.181.009a2.244,2.244,0,0,1-1.721,2.357C1021.147,709.805,1021.2,709.977,1021.316,709.95Z" transform="translate(-887.876 -612.362)" fill="#fff"/>
      <path id="Path_7605" data-name="Path 7605" d="M1004.409,741.368a4.67,4.67,0,0,1-2.085-2.69c-.033-.112-.2-.055-.172.057a4.857,4.857,0,0,0,2.176,2.794C1004.428,741.588,1004.508,741.427,1004.409,741.368Z" transform="translate(-871.731 -638.877)" fill="#fff"/>
      <path id="Path_7606" data-name="Path 7606" d="M1002.469,691.559a1.371,1.371,0,0,1-1.3-.066c-.1-.061-.18.1-.081.161a1.537,1.537,0,0,0,1.438.076.093.093,0,0,0,.057-.114A.091.091,0,0,0,1002.469,691.559Z" transform="translate(-870.795 -598.93)" fill="#fff"/>
      <path id="Path_7607" data-name="Path 7607" d="M918.672,716.839l.183.12a18.053,18.053,0,0,1,2.309,1.8c.056.05.113.1.168.154a19.039,19.039,0,0,1,4.135,5.661,18.488,18.488,0,0,1,1.013,2.621,12.04,12.04,0,0,0,1.42,3.629,3.167,3.167,0,0,0,.247.3h6.686l.046-.021.267.012c-.011-.047-.023-.1-.034-.143-.006-.027-.014-.055-.02-.082s-.009-.037-.012-.053l0-.017c0-.017-.008-.032-.011-.047q-.1-.41-.207-.819s0,0,0,0a27.187,27.187,0,0,0-2.288-6.007c-.031-.056-.061-.114-.095-.171a17.649,17.649,0,0,0-1.585-2.4,15.578,15.578,0,0,0-1.039-1.188,12.971,12.971,0,0,0-3.246-2.431,10.3,10.3,0,0,0-7.737-.978Z" transform="translate(-800.988 -620.054)" fill="#f0f0f0"/>
      <path id="Path_7608" data-name="Path 7608" d="M918.334,718.787a16.15,16.15,0,0,1,8.677,4.84,6.954,6.954,0,0,1,1.248,1.786,3.989,3.989,0,0,1,.322,2.074,8.255,8.255,0,0,0-.1,2,2.442,2.442,0,0,0,1.105,1.664,6.345,6.345,0,0,0,2.385.828,6.231,6.231,0,0,1,2.651.921c.093.07.2-.079.1-.149-1.338-1-3.131-.791-4.6-1.5a2.473,2.473,0,0,1-1.44-1.632,6.4,6.4,0,0,1,.063-2.028,4.256,4.256,0,0,0-.239-2.04,6.432,6.432,0,0,0-1.174-1.828,15.669,15.669,0,0,0-3.78-3.113,16.437,16.437,0,0,0-5.211-2c-.114-.023-.127.158-.014.18Z" transform="translate(-800.636 -621.917)" fill="#fff"/>
      <path id="Path_7609" data-name="Path 7609" d="M969.881,728.395a2.423,2.423,0,0,0-.056-3.137c-.077-.087-.216.029-.139.116a2.244,2.244,0,0,1,.046,2.918C969.658,728.382,969.807,728.484,969.881,728.395Z" transform="translate(-844.203 -627.53)" fill="#fff"/>
      <path id="Path_7610" data-name="Path 7610" d="M967.418,769.61a4.671,4.671,0,0,1-3.284-.892c-.093-.069-.2.079-.1.148a4.857,4.857,0,0,0,3.42.921C967.566,769.774,967.533,769.6,967.418,769.61Z" transform="translate(-839.397 -664.371)" fill="#fff"/>
      <path id="Path_7611" data-name="Path 7611" d="M935.879,726.795a1.371,1.371,0,0,1-1.077.73c-.116.011-.083.189.032.178a1.537,1.537,0,0,0,1.194-.8.094.094,0,0,0-.023-.126A.091.091,0,0,0,935.879,726.795Z" transform="translate(-814.596 -628.825)" fill="#fff"/>
      <path id="Path_7612" data-name="Path 7612" d="M299.425,111.121h-.61V94.412a9.671,9.671,0,0,0-9.671-9.671h-35.4a9.671,9.671,0,0,0-9.671,9.671v91.67a9.671,9.671,0,0,0,9.671,9.671h35.4a9.671,9.671,0,0,0,9.671-9.671V123.016h.61Z" transform="translate(-229.289 -84.741)" fill="#0e0071"/>
      <path id="Path_7613" data-name="Path 7613" d="M304.36,101.236h-4.621a3.431,3.431,0,0,1-3.177,4.727H276.281a3.431,3.431,0,0,1-3.177-4.727h-4.316a7.222,7.222,0,0,0-7.222,7.222v91.536a7.222,7.222,0,0,0,7.222,7.222H304.36a7.222,7.222,0,0,0,7.222-7.222h0V108.458A7.222,7.222,0,0,0,304.36,101.236Z" transform="translate(-244.115 -98.719)" fill="#fafdff"/>
      <rect id="Rectangle_689" data-name="Rectangle 689" width="12.609" height="1.171" transform="translate(34.796 27.106)" fill="#0e0071"/>
      <rect id="Rectangle_690" data-name="Rectangle 690" width="21.976" height="1.171" transform="translate(34.796 31.157)" fill="#e6e6e6"/>
      <rect id="Rectangle_691" data-name="Rectangle 691" width="21.954" height="1.171" transform="translate(34.796 35.207)" fill="#e6e6e6"/>
      <rect id="Rectangle_692" data-name="Rectangle 692" width="9.367" height="9.367" transform="translate(22.816 27.124)" fill="#0e0071"/>
      <rect id="Rectangle_693" data-name="Rectangle 693" width="12.609" height="1.171" transform="translate(34.796 51.695)" fill="#00ad4f"/>
      <rect id="Rectangle_694" data-name="Rectangle 694" width="21.976" height="1.171" transform="translate(34.796 55.746)" fill="#e6e6e6"/>
      <rect id="Rectangle_695" data-name="Rectangle 695" width="21.954" height="1.171" transform="translate(34.796 59.796)" fill="#e6e6e6"/>
      <rect id="Rectangle_696" data-name="Rectangle 696" width="9.367" height="9.367" transform="translate(22.816 51.713)" fill="#00ad4f"/>
      <rect id="Rectangle_697" data-name="Rectangle 697" width="12.609" height="1.171" transform="translate(34.796 76.284)" fill="#0e0071"/>
      <rect id="Rectangle_698" data-name="Rectangle 698" width="21.976" height="1.171" transform="translate(34.796 80.334)" fill="#e6e6e6"/>
      <rect id="Rectangle_699" data-name="Rectangle 699" width="21.954" height="1.171" transform="translate(34.796 84.385)" fill="#e6e6e6"/>
      <rect id="Rectangle_700" data-name="Rectangle 700" width="9.367" height="9.367" transform="translate(22.816 76.301)" fill="#0e0071"/>
      <path id="Path_7614" data-name="Path 7614" d="M708.016,675.891l-1.867.1-1.285-7.153,2.756-.152Z" transform="translate(-597.347 -566.69)" fill="#ffb6b6"/>
      <path id="Path_7615" data-name="Path 7615" d="M842.975,798.9l-6.021.331,0-.076a2.347,2.347,0,0,1,2.214-2.473h0l3.677-.2Z" transform="translate(-731.729 -687.911)" fill="#2f2e41"/>
      <path id="Path_7616" data-name="Path 7616" d="M467.543,506.911l-.242-1.854,7.038-1.815.357,2.737Z" transform="translate(-396.021 -426.479)" fill="#ffb6b6"/>
      <path id="Path_7617" data-name="Path 7617" d="M600.339,583.286l-.779-5.979.076-.01a2.347,2.347,0,0,1,2.631,2.024h0l.476,3.652Z" transform="translate(-530.552 -502.147)" fill="#2f2e41"/>
      <path id="Path_7618" data-name="Path 7618" d="M759.663,500.47a1.613,1.613,0,0,1,.238.084l6.4-4.034-.068-1.836,2.758-.465.437,3.239a1.22,1.22,0,0,1-.714,1.279l-7.866,3.492a1.6,1.6,0,1,1-1.184-1.758Z" transform="translate(-664.535 -431.759)" fill="#ffb6b6"/>
      <path id="Path_7619" data-name="Path 7619" d="M810.37,473.209a.686.686,0,0,1-.251-.514l-.085-3.444a1.906,1.906,0,0,1,3.754-.664l1.084,3.282a.686.686,0,0,1-.534.892l-3.416.594A.686.686,0,0,1,810.37,473.209Z" transform="translate(-708.897 -408.702)" fill="#e4e4e4"/>
      <circle id="Ellipse_3609" data-name="Ellipse 3609" cx="4.645" cy="4.645" r="4.645" transform="translate(102.149 45.699)" fill="#2f2e41"/>
      <circle id="Ellipse_3610" data-name="Ellipse 3610" cx="1.922" cy="1.922" r="1.922" transform="translate(106.497 43.533)" fill="#2f2e41"/>
      <path id="Path_7620" data-name="Path 7620" d="M865.168,365.233a1.922,1.922,0,0,0-1.722-1.912,1.947,1.947,0,0,1,.2-.01,1.922,1.922,0,1,1,0,3.844,1.951,1.951,0,0,1-.2-.01,1.922,1.922,0,0,0,1.722-1.911Z" transform="translate(-754.187 -320.819)" fill="#2f2e41"/>
      <circle id="Ellipse_3611" data-name="Ellipse 3611" cx="2.937" cy="2.937" r="2.937" transform="translate(103.855 49.52)" fill="#ffb8b8"/>
      <path id="Path_7621" data-name="Path 7621" d="M673.413,559.48a28.162,28.162,0,0,1-.7,5.315c-.559,1.818.42,27.551-.07,28.181s-2.8.42-2.8.42l-2.141-13.407s-.377-14.214-5.551-14.564-25.383,1.608-25.383,1.608l-.42-2.867,10.839-2.378s9.93-3.427,15.384-2.517A41.977,41.977,0,0,0,673.413,559.48Z" transform="translate(-561.733 -486.757)" fill="#0070fc"/>
      <path id="Path_7622" data-name="Path 7622" d="M816.141,449.691c.559-.42,1.958.14,1.958.14l1.538,4.545s-.769,3.916-1.468,6.084-2.046,11.751-1.767,12.17-4.527-3.01-7.394-4.059-3.5-2.238-3.5-2.238,3.147-4.475,2.1-6.573a6.367,6.367,0,0,1-.21-4.475l-.42-2.378,2.378-1.329S815.581,450.111,816.141,449.691Z" transform="translate(-705.09 -393.891)" fill="#e4e4e4"/>
      <ellipse id="Ellipse_3612" data-name="Ellipse 3612" cx="3.203" cy="1.922" rx="3.203" ry="1.922" transform="translate(103.05 47.437)" fill="#2f2e41"/>
      <path id="Path_7623" data-name="Path 7623" d="M904.707,453.4a1.6,1.6,0,0,0-.086.238l-7.176,2.394-1.377-1.217-2.108,1.839,2.229,2.391a1.22,1.22,0,0,0,1.442.258l7.686-3.872a1.6,1.6,0,1,0-.61-2.03Z" transform="translate(-780.046 -396.378)" fill="#ffb6b6"/>
      <path id="Path_7624" data-name="Path 7624" d="M882.035,454.736,879.411,457a.686.686,0,0,1-1.028-.152l-1.852-2.918a1.906,1.906,0,1,1,2.893-2.484l2.61,2.248a.686.686,0,0,1,0,1.039Z" transform="translate(-764.886 -394.949)" fill="#e4e4e4"/>
      <path id="Path_7625" data-name="Path 7625" d="M285.129,813.241H147.344a.182.182,0,1,1,0-.363H285.129a.182.182,0,1,1,0,.363Z" transform="translate(-147.162 -701.811)" fill="#3f3d56"/>
    </g>
    <circle id="Ellipse_44" data-name="Ellipse 44" cx="4.19" cy="4.19" r="4.19" transform="translate(220.557 174.42)" fill="#00c158"/>
    <circle id="Ellipse_44-2" data-name="Ellipse 44" cx="4.19" cy="4.19" r="4.19" transform="translate(114.202 288.847)" fill="#ba0101"/>
    <circle id="Ellipse_44-3" data-name="Ellipse 44" cx="2.554" cy="2.554" r="2.554" transform="translate(264.891 251.556)" fill="#ba0101"/>
    <circle id="Ellipse_44-4" data-name="Ellipse 44" cx="2.554" cy="2.554" r="2.554" transform="translate(101.171 220.726)" fill="#fa0"/>
    <circle id="Ellipse_44-5" data-name="Ellipse 44" cx="2.554" cy="2.554" r="2.554" transform="translate(163.959 182.799)" fill="#0070fc"/>
  </g>
</svg>
