<svg xmlns="http://www.w3.org/2000/svg" width="185.942" height="146.321" viewBox="0 0 185.942 146.321">
  <g id="Group_2332" data-name="Group 2332" transform="translate(-99.68 -156)">
    <g id="undraw_order_confirmed_re_g0if" transform="translate(99.68 156)">
      <path id="Path_7469" data-name="Path 7469" d="M305.2,166.624h-.627v-17.18a9.944,9.944,0,0,0-9.944-9.944h-36.4a9.944,9.944,0,0,0-9.944,9.944V243.7a9.944,9.944,0,0,0,9.944,9.944h36.4a9.944,9.944,0,0,0,9.944-9.944V178.853h.627Z" transform="translate(-213.273 -107.319)" fill="#0e0071"/>
      <path id="Path_7470" data-name="Path 7470" d="M305.311,151.783H300.56a3.528,3.528,0,0,1-3.266,4.86H276.441a3.528,3.528,0,0,1-3.266-4.86h-4.438a7.426,7.426,0,0,0-7.426,7.426v94.115a7.426,7.426,0,0,0,7.426,7.426h36.574a7.426,7.426,0,0,0,7.426-7.426h0V159.208A7.426,7.426,0,0,0,305.311,151.783Z" transform="translate(-223.556 -117.015)" fill="#f0faff"/>
      <circle id="Ellipse_44" data-name="Ellipse 44" cx="16" cy="16" r="16" transform="translate(47.38 71.223)" fill="#00c158"/>
      <path id="Path_395" data-name="Path 395" d="M351.959,381.266a1.713,1.713,0,0,1-1.029-.342l-.018-.014-3.876-2.965a1.722,1.722,0,1,1,2.1-2.734l2.511,1.925,5.933-7.74a1.722,1.722,0,0,1,2.414-.319h0l-.037.051.038-.051a1.724,1.724,0,0,1,.318,2.415l-6.978,9.1a1.722,1.722,0,0,1-1.37.672Z" transform="translate(-290.132 -287.771)" fill="#fff"/>
      <circle id="Ellipse_44-2" data-name="Ellipse 44" cx="3.777" cy="3.777" r="3.777" transform="translate(146.558 0)" fill="#00c158"/>
      <circle id="Ellipse_44-3" data-name="Ellipse 44" cx="3.777" cy="3.777" r="3.777" transform="translate(15.579 135.099)" fill="#ba0101"/>
      <circle id="Ellipse_44-4" data-name="Ellipse 44" cx="2.303" cy="2.303" r="2.303" transform="translate(181.336 59.843)" fill="#ba0101"/>
      <circle id="Ellipse_44-5" data-name="Ellipse 44" cx="2.303" cy="2.303" r="2.303" transform="translate(0 52.045)" fill="#fa0"/>
      <circle id="Ellipse_44-6" data-name="Ellipse 44" cx="2.303" cy="2.303" r="2.303" transform="translate(68.79 123.679)" fill="#fa0"/>
      <circle id="Ellipse_44-7" data-name="Ellipse 44" cx="2.303" cy="2.303" r="2.303" transform="translate(91.925 10.638)" fill="#0070fc"/>
    </g>
    <path id="Path_7626" data-name="Path 7626" d="M-21.44-37.505c0,6.194,4.223,10.135,9.854,10.135,5.7,0,9.924-3.942,9.924-10.135,0-6.123-4.223-10.065-9.924-10.065C-17.217-47.57-21.44-43.628-21.44-37.505Zm9.854-6.9c3.519,0,5.912,2.463,5.912,6.9s-2.393,6.968-5.912,6.968-5.842-2.534-5.842-6.968S-15.105-44.4-11.586-44.4ZM-15.88,2.4h5L17.975-46.866H13.048ZM3.9-6.958C3.9-.764,8.122,3.177,13.752,3.177S23.606-.764,23.606-6.958s-4.223-10.135-9.854-10.135S3.9-13.152,3.9-6.958Zm9.854-6.9c3.519,0,5.842,2.463,5.842,6.9s-2.323,6.9-5.842,6.9S7.84-2.524,7.84-6.958,10.233-13.856,13.752-13.856Z" transform="matrix(0.946, 0.326, -0.326, 0.946, 233.369, 291.341)" fill="#5f6368" opacity="0.5"/>
  </g>
</svg>
