<svg xmlns="http://www.w3.org/2000/svg" xmlns:xlink="http://www.w3.org/1999/xlink" width="42" height="42" viewBox="0 0 42 42">
  <defs>
    <filter id="Ellipse_3601" x="0" y="0" width="42" height="42" filterUnits="userSpaceOnUse">
      <feOffset dy="3" input="SourceAlpha"/>
      <feGaussianBlur stdDeviation="3" result="blur"/>
      <feFlood flood-opacity="0.161"/>
      <feComposite operator="in" in2="blur"/>
      <feComposite in="SourceGraphic"/>
    </filter>
  </defs>
  <g id="Group_3068" data-name="Group 3068" transform="translate(-301 -265)">
    <g transform="matrix(1, 0, 0, 1, 301, 265)" filter="url(#Ellipse_3601)">
      <circle id="Ellipse_3601-2" data-name="Ellipse 3601" cx="12" cy="12" r="12" transform="translate(9 6)" fill="#fff" opacity="0.5"/>
    </g>
    <g id="edit_black_24dp_1_" data-name="edit_black_24dp (1)" transform="translate(314 275)">
      <path id="Path_7651" data-name="Path 7651" d="M0,0H16V16H0Z" fill="none"/>
      <path id="Path_7652" data-name="Path 7652" d="M9.764,6.682l.563.563L4.786,12.785H4.223v-.563L9.764,6.682M11.966,3a.612.612,0,0,0-.428.177L10.419,4.3,12.712,6.59l1.119-1.119a.609.609,0,0,0,0-.862L12.4,3.177A.6.6,0,0,0,11.966,3Zm-2.2,1.951L3,11.715v2.293H5.294l6.764-6.764L9.764,4.951Z" transform="translate(-0.504 -0.504)" fill="#fff"/>
    </g>
  </g>
</svg>
