<svg xmlns="http://www.w3.org/2000/svg" width="24" height="24" viewBox="0 0 24 24">
  <g id="Group_3067" data-name="Group 3067" transform="translate(-110 -597)">
    <g id="google-g-2015" transform="translate(490.2 322.3)">
      <circle id="Ellipse_3603" data-name="Ellipse 3603" cx="12" cy="12" r="12" transform="translate(-380.2 274.7)" fill="#e0e0e0"/>
      <circle id="Ellipse_3604" data-name="Ellipse 3604" cx="11.817" cy="11.817" r="11.817" transform="translate(-380.017 274.7)" fill="#fff"/>
    </g>
    <g id="Group_2315" data-name="Group 2315" transform="translate(-251.729 1879.613)">
      <path id="Path_841" data-name="Path 841" d="M21.547,23.081a1.541,1.541,0,1,1,1.541-1.541,1.541,1.541,0,0,1-1.541,1.541" transform="translate(347.723 -1296.776)" fill="#0e0071"/>
      <path id="Path_842" data-name="Path 842" d="M81.547,23.081a1.541,1.541,0,1,1,1.541-1.541,1.541,1.541,0,0,1-1.541,1.541" transform="translate(296.967 -1296.776)" fill="#0e0071"/>
      <path id="Path_843" data-name="Path 843" d="M51.547,23.081a1.541,1.541,0,1,1,1.541-1.541,1.541,1.541,0,0,1-1.541,1.541" transform="translate(322.345 -1296.776)" fill="#0e0071"/>
      <path id="Path_844" data-name="Path 844" d="M21.547,83.082a1.541,1.541,0,1,1,1.541-1.541,1.541,1.541,0,0,1-1.541,1.541" transform="translate(347.723 -1347.531)" fill="#0e0071"/>
      <path id="Path_845" data-name="Path 845" d="M21.547,53.081a1.541,1.541,0,1,1,1.541-1.541,1.541,1.541,0,0,1-1.541,1.541" transform="translate(347.723 -1322.154)" fill="#0e0071"/>
      <path id="Path_846" data-name="Path 846" d="M51.547,83.082a1.541,1.541,0,1,1,1.541-1.541,1.541,1.541,0,0,1-1.541,1.541" transform="translate(322.345 -1347.531)" fill="#0e0071"/>
      <path id="Path_847" data-name="Path 847" d="M81.547,83.082a1.541,1.541,0,1,1,1.541-1.541,1.541,1.541,0,0,1-1.541,1.541" transform="translate(296.967 -1347.531)" fill="#0e0071"/>
      <path id="Path_848" data-name="Path 848" d="M81.547,53.081a1.541,1.541,0,1,1,1.541-1.541,1.541,1.541,0,0,1-1.541,1.541" transform="translate(296.967 -1322.154)" fill="#0e0071"/>
      <path id="Path_849" data-name="Path 849" d="M56.04,57.067a1.034,1.034,0,1,1,1.034-1.034,1.034,1.034,0,0,1-1.034,1.034" transform="translate(317.852 -1326.644)" fill="#0070fc"/>
    </g>
  </g>
</svg>
