<svg id="Google__G__Logo" xmlns="http://www.w3.org/2000/svg" width="17.618" height="18" viewBox="0 0 17.618 18">
  <path id="Path_186" data-name="Path 186" d="M-6.136,50.941a10.427,10.427,0,0,0-.142-1.7h-8.475v3.383H-9.9a4.178,4.178,0,0,1-1.8,2.685v2.25h2.9A8.8,8.8,0,0,0-6.136,50.941Z" transform="translate(23.754 -41.739)" fill="#4285f4"/>
  <path id="Path_187" data-name="Path 187" d="M-17.431,60.812a8.573,8.573,0,0,0,5.947-2.183l-2.9-2.25a5.429,5.429,0,0,1-3.052.87,5.375,5.375,0,0,1-5.048-3.72h-2.985v2.317A8.987,8.987,0,0,0-17.431,60.812Z" transform="translate(26.431 -42.812)" fill="#34a853"/>
  <path id="Path_188" data-name="Path 188" d="M-22.8,51.612a5.223,5.223,0,0,1-.285-1.718,5.426,5.426,0,0,1,.285-1.717V45.859h-2.985a8.9,8.9,0,0,0-.968,4.035,8.9,8.9,0,0,0,.968,4.035Z" transform="translate(26.754 -40.894)" fill="#fbbc05"/>
  <path id="Path_189" data-name="Path 189" d="M-17.431,42.8a4.883,4.883,0,0,1,3.45,1.35l2.565-2.565a8.6,8.6,0,0,0-6.015-2.347A8.987,8.987,0,0,0-25.464,44.2l2.985,2.318A5.375,5.375,0,0,1-17.431,42.8Z" transform="translate(26.431 -39.239)" fill="#ea4335"/>
</svg>
