<svg xmlns="http://www.w3.org/2000/svg" width="241.891" height="190.307" viewBox="0 0 241.891 190.307">
  <g id="Group_2435" data-name="Group 2435" transform="translate(-72 -173.88)">
    <g id="Group_2422" data-name="Group 2422" transform="translate(72 220.55)">
      <g id="undraw_charts_re_5qe9">
        <path id="Path_7706" data-name="Path 7706" d="M242.213,582.694a38.32,38.32,0,0,1-28.664-37.675,15.4,15.4,0,0,1,1.157-6.262,7.088,7.088,0,0,1,4.657-4.079,7.334,7.334,0,0,1,6.384,2.125,19.486,19.486,0,0,1,3.837,5.81c6.173,12.631,10.862,26.184,12.618,40.133Z" transform="translate(-213.545 -439.88)" fill="#f2f2f2"/>
        <path id="Path_7707" data-name="Path 7707" d="M231.189,535.648l4.326,9.829,4.326,9.829c1.37,3.113,2.738,6.227,4.154,9.32,1.4,3.065,2.855,6.109,4.4,9.1s3.19,5.932,4.974,8.788q.333.534.673,1.063c.157.244.549.018.391-.228-1.818-2.835-3.494-5.758-5.065-8.736s-3.044-6.016-4.46-9.074c-1.424-3.075-2.792-6.175-4.158-9.276l-4.31-9.793-4.326-9.829-.538-1.223C231.463,535.153,231.073,535.383,231.189,535.648Z" transform="translate(-226.405 -440.428)" fill="#fff"/>
        <path id="Path_7708" data-name="Path 7708" d="M242.341,660.067a22.424,22.424,0,0,1-25.052-11.822,9.011,9.011,0,0,1-1.09-3.564,4.147,4.147,0,0,1,1.317-3.375,4.292,4.292,0,0,1,3.888-.62,11.4,11.4,0,0,1,3.561,1.98,75.416,75.416,0,0,1,17.385,17.43Z" transform="translate(-215.477 -517.184)" fill="#f2f2f2"/>
        <path id="Path_7709" data-name="Path 7709" d="M219.377,644.682l4.9,3.935,4.9,3.935c1.552,1.246,3.1,2.494,4.672,3.717s3.132,2.4,4.744,3.538,3.258,2.219,4.955,3.22q.317.187.636.37c.147.085.29-.139.141-.224-1.709-.981-3.369-2.046-4.988-3.168s-3.2-2.3-4.765-3.507-3.117-2.452-4.663-3.694l-4.882-3.921-4.9-3.935-.61-.49c-.133-.107-.273.118-.141.224Z" transform="translate(-217.762 -520.062)" fill="#fff"/>
        <path id="Path_7710" data-name="Path 7710" d="M618.971,184.28H487.347a1.894,1.894,0,0,0-1.892,1.892v89.191a1.894,1.894,0,0,0,1.892,1.892H618.971a1.894,1.894,0,0,0,1.892-1.892V186.171A1.894,1.894,0,0,0,618.971,184.28Zm1.351,91.083a1.352,1.352,0,0,1-1.351,1.351H487.347A1.352,1.352,0,0,1,486,275.363V186.171a1.352,1.352,0,0,1,1.351-1.351H618.971a1.352,1.352,0,0,1,1.351,1.351Z" transform="translate(-411.964 -184.28)" fill="#3f3d56"/>
        <rect id="Rectangle_713" data-name="Rectangle 713" width="134.868" height="0.541" transform="translate(73.761 7.579)" fill="#3f3d56"/>
        <circle id="Ellipse_3634" data-name="Ellipse 3634" cx="1.622" cy="1.622" r="1.622" transform="translate(76.734 2.432)" fill="#3f3d56"/>
        <circle id="Ellipse_3635" data-name="Ellipse 3635" cx="1.622" cy="1.622" r="1.622" transform="translate(81.397 2.432)" fill="#3f3d56"/>
        <circle id="Ellipse_3636" data-name="Ellipse 3636" cx="1.622" cy="1.622" r="1.622" transform="translate(86.059 2.432)" fill="#3f3d56"/>
        <path id="Path_7711" data-name="Path 7711" d="M541.918,248.563h-22.7a1.892,1.892,0,1,1,0-3.784h22.7a1.892,1.892,0,1,1,0,3.784Z" transform="translate(-435.219 -228.428)" fill="#eff0f2"/>
        <path id="Path_7712" data-name="Path 7712" d="M573,282.563H519.215a1.892,1.892,0,1,1,0-3.784H573a1.892,1.892,0,0,1,0,3.784Z" transform="translate(-435.219 -253.238)" fill="#eff0f2"/>
        <path id="Path_7713" data-name="Path 7713" d="M775.9,306.3a24.6,24.6,0,0,0,20.283,38.508V323.34Z" transform="translate(-620.761 -273.323)" fill="#0070fc"/>
        <path id="Path_7714" data-name="Path 7714" d="M807.825,266.78a24.567,24.567,0,0,0-20.283,10.682L807.825,294.5Z" transform="translate(-632.405 -244.482)" fill="#eff0f2"/>
        <path id="Path_7715" data-name="Path 7715" d="M861.857,315.51h-.27V265.78h.27a24.865,24.865,0,1,1,0,49.731Zm.27-49.189v48.647a24.324,24.324,0,1,0,0-48.648Z" transform="translate(-686.436 -243.752)" fill="#3f3d56"/>
        <path id="Path_7716" data-name="Path 7716" d="M566.634,444.956h-4.595a1.218,1.218,0,0,1-1.216-1.216V430.5a1.218,1.218,0,0,1,1.216-1.216h4.595a1.218,1.218,0,0,1,1.216,1.216v13.243a1.218,1.218,0,0,1-1.216,1.216Z" transform="translate(-466.962 -363.062)" fill="#ba0101"/>
        <path id="Path_7717" data-name="Path 7717" d="M616.634,428.172h-4.595a1.218,1.218,0,0,1-1.216-1.216V407.5a1.218,1.218,0,0,1,1.216-1.216h4.595a1.218,1.218,0,0,1,1.216,1.216v19.46a1.218,1.218,0,0,1-1.216,1.216Z" transform="translate(-503.448 -346.278)" fill="#fa0"/>
        <path id="Path_7718" data-name="Path 7718" d="M666.634,413.577h-4.595a1.218,1.218,0,0,1-1.216-1.216V387.5a1.218,1.218,0,0,1,1.216-1.216h4.595a1.218,1.218,0,0,1,1.216,1.216v24.865A1.218,1.218,0,0,1,666.634,413.577Z" transform="translate(-539.934 -331.684)" fill="#00c158"/>
        <path id="Path_7719" data-name="Path 7719" d="M566.269,400.213h-4.595a1.353,1.353,0,0,1-1.352-1.351v-29.73a1.353,1.353,0,0,1,1.352-1.351h4.595a1.353,1.353,0,0,1,1.352,1.351v29.73a1.353,1.353,0,0,1-1.352,1.351Zm-4.595-31.893a.812.812,0,0,0-.811.811v29.73a.812.812,0,0,0,.811.811h4.595a.812.812,0,0,0,.811-.811v-29.73a.812.812,0,0,0-.811-.811Z" transform="translate(-466.597 -318.184)" fill="#3f3d56"/>
        <path id="Path_7720" data-name="Path 7720" d="M616.269,400.213h-4.595a1.353,1.353,0,0,1-1.352-1.351v-29.73a1.353,1.353,0,0,1,1.352-1.351h4.595a1.353,1.353,0,0,1,1.351,1.351v29.73a1.353,1.353,0,0,1-1.351,1.351Zm-4.595-31.893a.812.812,0,0,0-.811.811v29.73a.812.812,0,0,0,.811.811h4.595a.812.812,0,0,0,.811-.811v-29.73a.812.812,0,0,0-.811-.811Z" transform="translate(-503.083 -318.184)" fill="#3f3d56"/>
        <path id="Path_7721" data-name="Path 7721" d="M666.269,400.213h-4.595a1.353,1.353,0,0,1-1.351-1.351v-29.73a1.353,1.353,0,0,1,1.351-1.351h4.595a1.353,1.353,0,0,1,1.351,1.351v29.73a1.353,1.353,0,0,1-1.351,1.351Zm-4.595-31.893a.812.812,0,0,0-.811.811v29.73a.812.812,0,0,0,.811.811h4.595a.812.812,0,0,0,.811-.811v-29.73a.812.812,0,0,0-.811-.811Z" transform="translate(-539.569 -318.184)" fill="#3f3d56"/>
        <path id="Path_7722" data-name="Path 7722" d="M304.106,508.725a2.718,2.718,0,0,0-2.374-3.425l-2.324-9.374-3.4,3.69,2.729,8.336a2.733,2.733,0,0,0,5.372.773Z" transform="translate(-273.718 -411.695)" fill="#ffb8b8"/>
        <path id="Path_7723" data-name="Path 7723" d="M288.712,440.7a1.217,1.217,0,0,1-.68-.721l-3.88-11.94a12.534,12.534,0,0,1,.206-8.821l3.74-9.285a3.918,3.918,0,0,1,7.73,1.288l-5.16,15.016,1.806,12.227a1.22,1.22,0,0,1-.686,1.217l-2.084.994a1.218,1.218,0,0,1-.719.1,1.2,1.2,0,0,1-.273-.078Z" transform="translate(-264.555 -346.557)" fill="#0e0071"/>
        <path id="Path_7724" data-name="Path 7724" d="M160.342,483.935h3.314l1.576-12.781h-4.89Z" transform="translate(-117.004 -343.812)" fill="#ffb8b8"/>
        <path id="Path_7725" data-name="Path 7725" d="M0,0H10.414V4.024H4.024A4.024,4.024,0,0,1,0,0H0Z" transform="translate(53.04 143.2) rotate(179.997)" fill="#2f2e41"/>
        <path id="Path_7726" data-name="Path 7726" d="M99.342,483.935h3.314l1.576-12.781h-4.89Z" transform="translate(-72.491 -343.812)" fill="#ffb8b8"/>
        <path id="Path_7727" data-name="Path 7727" d="M0,0H10.414V4.024H4.024A4.024,4.024,0,0,1,0,0H0Z" transform="translate(36.554 143.2) rotate(179.997)" fill="#2f2e41"/>
        <path id="Path_7728" data-name="Path 7728" d="M328.448,509.991l2.913,23.078q.6,4.759.84,9.553l.785,15.694a1.081,1.081,0,0,1-1.08,1.135h-4.421a1.081,1.081,0,0,1-1.069-.919l-3.976-26.193a.541.541,0,0,0-1.066-.018l-4.79,25.654a1.081,1.081,0,0,1-.98.861l-4.069.258a1.081,1.081,0,0,1-1.159-1.112l1.314-42.045Z" transform="translate(-284.205 -421.959)" fill="#b2bfd0"/>
        <circle id="Ellipse_3637" data-name="Ellipse 3637" cx="6.638" cy="6.638" r="6.638" transform="translate(24.699 41.885)" fill="#ffb8b8"/>
        <path id="Path_7729" data-name="Path 7729" d="M300.309,433.585c1.622,3.784,8.649,6.487,10.271,1.081,1.254-4.178,6.222-5.935,8.414-6.516a1.085,1.085,0,0,0,.773-1.314l-6.127-24.068a8.454,8.454,0,0,0-16.522.638,37.061,37.061,0,0,0-.43,4.26C296.179,418.284,299.241,431.093,300.309,433.585Z" transform="translate(-274.175 -339.066)" fill="#0e0071"/>
        <path id="Path_7730" data-name="Path 7730" d="M362.38,506.278a2.718,2.718,0,0,0-3.447-2.343l-5.539-7.912-1.848,4.666,5.543,6.8a2.733,2.733,0,0,0,5.29-1.21Z" transform="translate(-314.248 -411.766)" fill="#ffb8b8"/>
        <path id="Path_7731" data-name="Path 7731" d="M334.456,442.668a1.218,1.218,0,0,1-.894-.429l-7.913-9.747a12.533,12.533,0,0,1-2.978-8.305l.152-10.009A3.918,3.918,0,0,1,330.5,412.6l.582,15.867,6.081,10.76a1.22,1.22,0,0,1-.2,1.383l-1.587,1.677a1.218,1.218,0,0,1-.634.354A1.2,1.2,0,0,1,334.456,442.668Z" transform="translate(-293.176 -348.607)" fill="#0e0071"/>
        <path id="Path_7732" data-name="Path 7732" d="M301.9,344.567a1.083,1.083,0,0,0,1.6-.64l0-.015a5.178,5.178,0,0,0-.014-1.547,1.938,1.938,0,0,1,.368-1.465c.656-.708,1.824-.333,2.773-.512a2.342,2.342,0,0,0,1.822-2.5c-.013-.107-.035-.215-.058-.322a1.8,1.8,0,0,1,1.872-2.184c.959.055,1.994.345,2.788-.365a2.056,2.056,0,0,0,.494-2.217,4.174,4.174,0,0,0-3-2.369,10.979,10.979,0,0,0-9.306,1.527,4.928,4.928,0,0,0-1.889,2.191,2.4,2.4,0,0,0,.593,2.682,4.955,4.955,0,0,0-1.148,4.813C299.176,342.867,300.989,344.04,301.9,344.567Z" transform="translate(-275.605 -290.614)" fill="#2f2e41"/>
        <path id="Path_7733" data-name="Path 7733" d="M295.545,714.261H223.922a.27.27,0,0,1,0-.541h71.623a.27.27,0,1,1,0,.541Z" transform="translate(-220.92 -570.625)" fill="#3f3d56"/>
      </g>
    </g>
    <g id="Group_2412" data-name="Group 2412" transform="translate(90.122 173.88)">
      <ellipse id="Ellipse_44" data-name="Ellipse 44" cx="5.427" cy="5.427" rx="5.427" ry="5.427" transform="translate(58.261)" fill="#00c158" opacity="0.4"/>
      <ellipse id="Ellipse_44-2" data-name="Ellipse 44" cx="5.427" cy="5.427" rx="5.427" ry="5.427" transform="translate(196.035 148.231)" fill="#ba0101"/>
      <ellipse id="Ellipse_44-3" data-name="Ellipse 44" cx="3.309" cy="3.309" rx="3.309" ry="3.309" transform="translate(0 34.057)" fill="#fa0"/>
      <ellipse id="Ellipse_44-4" data-name="Ellipse 44" cx="3.309" cy="3.309" rx="3.309" ry="3.309" transform="translate(217.152 59.986)" fill="#fa0"/>
      <ellipse id="Ellipse_44-5" data-name="Ellipse 44" cx="3.309" cy="3.309" rx="3.309" ry="3.309" transform="translate(135.815 10.855)" fill="#0070fc"/>
    </g>
  </g>
</svg>
