<svg xmlns="http://www.w3.org/2000/svg" width="243.651" height="190.639" viewBox="0 0 243.651 190.639">
  <g id="Group_2610" data-name="Group 2610" transform="translate(-52.89 -174)">
    <g id="Group_2421" data-name="Group 2421" transform="translate(-14.813 -2.772)">
      <g id="Group_2412" data-name="Group 2412" transform="translate(67.703 176.772)">
        <circle id="Ellipse_44" data-name="Ellipse 44" cx="5.457" cy="5.457" r="5.457" transform="translate(155.507)" fill="#00c158" opacity="0.4"/>
        <circle id="Ellipse_44-2" data-name="Ellipse 44" cx="5.457" cy="5.457" r="5.457" transform="translate(16.973 149.048)" fill="#ba0101"/>
        <circle id="Ellipse_44-3" data-name="Ellipse 44" cx="3.327" cy="3.327" r="3.327" transform="translate(218.349 34.245)" fill="#fa0"/>
        <circle id="Ellipse_44-4" data-name="Ellipse 44" cx="3.327" cy="3.327" r="3.327" transform="translate(0 60.317)" fill="#fa0"/>
        <circle id="Ellipse_44-5" data-name="Ellipse 44" cx="3.327" cy="3.327" r="3.327" transform="translate(81.786 10.914)" fill="#0070fc"/>
      </g>
      <g id="Group_2414" data-name="Group 2414" transform="translate(126.398 245.229)">
        <path id="Path_7677" data-name="Path 7677" d="M468.154,401.458H341.381a7.633,7.633,0,0,1-7.624-7.624v-75.8a7.633,7.633,0,0,1,7.624-7.624H468.154a7.632,7.632,0,0,1,7.624,7.624v75.8A7.633,7.633,0,0,1,468.154,401.458ZM341.381,311.715a6.324,6.324,0,0,0-6.317,6.317v75.8a6.324,6.324,0,0,0,6.317,6.317H468.154a6.324,6.324,0,0,0,6.317-6.317v-75.8a6.324,6.324,0,0,0-6.317-6.317Z" transform="translate(-333.757 -299.517)" fill="#0e0071"/>
        <path id="Path_7678" data-name="Path 7678" d="M383.2,337.3a5.446,5.446,0,1,1,5.446-5.446A5.446,5.446,0,0,1,383.2,337.3Zm0-9.584a4.139,4.139,0,1,0,4.139,4.139A4.139,4.139,0,0,0,383.2,327.715Z" transform="translate(-358.589 -308.546)" fill="#0e0071"/>
        <path id="Path_7679" data-name="Path 7679" d="M594.2,337.3a5.446,5.446,0,1,1,5.445-5.446A5.446,5.446,0,0,1,594.2,337.3Zm0-9.584a4.139,4.139,0,1,0,4.138,4.139A4.139,4.139,0,0,0,594.2,327.715Z" transform="translate(-477.668 -308.546)" fill="#0e0071"/>
        <path id="Path_7680" data-name="Path 7680" d="M384.485,399.754H360.96a3.707,3.707,0,0,1-3.7-3.7V382.111a3.707,3.707,0,0,1,3.7-3.7h23.525a3.707,3.707,0,0,1,3.7,3.7v13.941A3.707,3.707,0,0,1,384.485,399.754Z" transform="translate(-347.02 -342.865)" fill="#657180" opacity="0.1"/>
        <path id="Path_7681" data-name="Path 7681" d="M488.485,399.754H464.96a3.708,3.708,0,0,1-3.7-3.7V382.111a3.708,3.708,0,0,1,3.7-3.7h23.525a3.708,3.708,0,0,1,3.7,3.7v13.941A3.707,3.707,0,0,1,488.485,399.754Z" transform="translate(-405.713 -344.865)" fill="#657180" opacity="0.047"/>
        <path id="Path_7682" data-name="Path 7682" d="M569.525,379.408a3.271,3.271,0,0,0-3.267,3.267v13.941a3.271,3.271,0,0,0,3.267,3.267H593.05a3.271,3.271,0,0,0,3.267-3.267V382.675a3.271,3.271,0,0,0-3.267-3.267Z" transform="translate(-464.97 -343.865)" fill="#657180" opacity="0.1"/>
        <path id="Path_7683" data-name="Path 7683" d="M384.985,463.754H361.46a3.707,3.707,0,0,1-3.7-3.7V446.111a3.707,3.707,0,0,1,3.7-3.7h23.525a3.707,3.707,0,0,1,3.7,3.7v13.941A3.707,3.707,0,0,1,384.985,463.754Z" transform="translate(-347.302 -374.011)" fill="#657180" opacity="0.047"/>
        <path id="Path_7684" data-name="Path 7684" d="M488.985,463.754H465.46a3.707,3.707,0,0,1-3.7-3.7V446.111a3.707,3.707,0,0,1,3.7-3.7h23.525a3.707,3.707,0,0,1,3.7,3.7v13.941A3.707,3.707,0,0,1,488.985,463.754Z" transform="translate(-405.995 -374.011)" fill="#657180" opacity="0.1"/>
        <path id="Path_7685" data-name="Path 7685" d="M592.985,463.754H569.46a3.707,3.707,0,0,1-3.7-3.7V446.111a3.707,3.707,0,0,1,3.7-3.7h23.525a3.707,3.707,0,0,1,3.7,3.7v13.941A3.707,3.707,0,0,1,592.985,463.754Z" transform="translate(-464.688 -374.011)" fill="#657180" opacity="0.047"/>
        <path id="Path_7686" data-name="Path 7686" d="M388.282,310.24a1.527,1.527,0,0,1-1.525-1.525V286.933a1.525,1.525,0,1,1,3.049,0v21.782A1.526,1.526,0,0,1,388.282,310.24Z" transform="translate(-363.668 -285.408)" fill="#0e0071"/>
        <path id="Path_7687" data-name="Path 7687" d="M599.282,310.24a1.527,1.527,0,0,1-1.525-1.525V286.933a1.525,1.525,0,1,1,3.049,0v21.782A1.527,1.527,0,0,1,599.282,310.24Z" transform="translate(-482.747 -285.408)" fill="#0e0071"/>
      </g>
      <g id="Group_2415" data-name="Group 2415" transform="translate(268.419 281.49)">
        <g id="Group_2338" data-name="Group 2338" transform="translate(13.378 76.758)">
          <path id="Path_7627" data-name="Path 7627" d="M358.217,428.885h-2.056l-.978-7.93h3.034Z" transform="translate(-351.075 -420.955)" fill="#ffb6b6"/>
          <path id="Path_7628" data-name="Path 7628" d="M339.383,444.808h0a1.766,1.766,0,0,0-.1.581h0a.7.7,0,0,0,.7.7h6.367a.476.476,0,0,0,.476-.476v-.265a2.035,2.035,0,0,0-.333-1.779s-.806.769-2.01-.435l-.355-.643-2.571,1.88-1.425.175c-.312.038-.588-.006-.748.264h0Z" transform="translate(-339.285 -436.925)" fill="#0e0071"/>
        </g>
        <g id="Group_2339" data-name="Group 2339" transform="translate(35.766 74.87)">
          <path id="Path_7629" data-name="Path 7629" d="M433.717,420.894l-1.879.835-4.115-6.849,2.773-1.233Z" transform="translate(-427.26 -413.648)" fill="#ffb6b6"/>
          <path id="Path_7630" data-name="Path 7630" d="M425.934,440.988h0a1.766,1.766,0,0,0,.147.571h0a.7.7,0,0,0,.921.354l5.818-2.587a.476.476,0,0,0,.242-.628l-.108-.242a2.035,2.035,0,0,0-1.027-1.49s-.424,1.03-2.014.419l-.586-.444-1.585,2.762-1.231.739c-.269.162-.54.233-.577.545Z" transform="translate(-425.932 -430.922)" fill="#0e0071"/>
        </g>
        <path id="Path_7631" data-name="Path 7631" d="M344.386,259.606l-1.828,3.839,3.107,39.848h3.886l1.6-26.139L365.1,303.292h4.767l-7.2-18.645-4.935-24.311Z" transform="translate(-328.335 -224.537)" fill="#eff0f2"/>
        <path id="Path_7633" data-name="Path 7633" d="M406.044,219.758l-.131,10.23-2.545,9.12-2.035-.759.9-8.359-.119-11.312Z" transform="translate(-371.922 -194.184)" fill="#ffb6b6"/>
        <ellipse id="Ellipse_3613" data-name="Ellipse 3613" cx="2.413" cy="1.433" rx="2.413" ry="1.433" transform="translate(28.184 48.255) rotate(-79.681)" fill="#ffb6b6"/>
        <path id="Path_7635" data-name="Path 7635" d="M314.3,207.108l-5.724,8.48-7.132,6.227-1.285-1.751,5.342-6.492,6.108-9.522Z" transform="translate(-296.895 -183.336)" fill="#ffb6b6"/>
        <ellipse id="Ellipse_3614" data-name="Ellipse 3614" cx="2.413" cy="1.433" rx="2.413" ry="1.433" transform="matrix(0.69, -0.724, 0.724, 0.69, 0, 39.475)" fill="#ffb6b6"/>
        <g id="Group_2342" data-name="Group 2342" transform="translate(12.464 10.451)">
          <path id="Path_7632" data-name="Path 7632" d="M357.159,164.331h-4.82l-1.768,2.774-3.987,1.907.867,11.962-.435,8.722.6-.017a30.914,30.914,0,0,1,12.453,2.157,5.019,5.019,0,0,0,2.988.407,5.857,5.857,0,0,0-.693-1.734c-.347-.347-.52-.633-.347-.837s.52-.377.173-.723a1.208,1.208,0,0,1-.347-.784l-1.04-7.711,2.08-10.922-4.334-2.427-1.387-2.774Z" transform="translate(-343.785 -164.331)" fill="#0e0071"/>
          <path id="Path_7634" data-name="Path 7634" d="M397.168,181.451s2.872.445,2.91,2.91,2.811,6.452,1.078,9.572l-4.507.693-2.427-8.841,2.774-4.681" transform="translate(-379.113 -176.771)" fill="#0e0071"/>
          <path id="Path_7636" data-name="Path 7636" d="M343.414,173.347s2.157,1.948.836,4.029-1.19,6.936-4.352,8.594l-4.149-1.894c.349-3.419.553-6.963,2.823-8.723l4.887-2.391" transform="translate(-335.749 -170.732)" fill="#0e0071"/>
        </g>
        <g id="Group_2340" data-name="Group 2340" transform="translate(17.711 0)">
          <circle id="Ellipse_3615" data-name="Ellipse 3615" cx="4.313" cy="4.313" r="4.313" transform="translate(0.657 1.111)" fill="#ffb6b6"/>
          <path id="Path_7637" data-name="Path 7637" d="M364.193,132.85c.238.04.516-.535.783-1.1a6.957,6.957,0,0,0,.94-2.975c.023-.9-.227-.663-.47-2.662-.08-.659-1.207-.658-1.436-.971-.387-.529.207-.747-.757-1.065-1.8-.6-2.621.329-3.767.409-.029,0-.6.558-.914.586a1.558,1.558,0,0,1-1.717-.883c-.336-.792-.559,1.522-.258,1.809a6.079,6.079,0,0,1,.706.9c.013.05-1.046-1.123-1.223-.639-.127.348.273,2.138.6,2.205.271.056.932-.835.783-.47-.346.848,1.736,1.389,4.228-.313.088-.06,0,.036.313.783.389.942.477.993.47,1.253-.015.562-.436.727-.313,1.1a.759.759,0,0,0,.783.47c.331-.068.387-.477.626-.47.2.006.448.315.47.626.046.656-.926.837-1.1,1.722C362.844,133.663,363.975,132.812,364.193,132.85Z" transform="translate(-356.056 -123.882)" fill="#2f2e41"/>
        </g>
      </g>
    </g>
    <g id="Group_2604" data-name="Group 2604" transform="translate(5816.879 -213.731)">
      <path id="Path_7853" data-name="Path 7853" d="M624.8,239.545H602.263a2.417,2.417,0,0,0-2.414,2.413v13.377a2.418,2.418,0,0,0,2.414,2.414h14.37a10.587,10.587,0,0,0,10.578-10.578v-5.213a2.415,2.415,0,0,0-2.413-2.413Z" transform="translate(-6293.699 254.486)" fill="#fff"/>
      <circle id="Ellipse_3682" data-name="Ellipse 3682" cx="1.922" cy="1.922" r="1.922" transform="translate(-5687.507 492.783)" fill="#2f2e41"/>
      <circle id="Ellipse_3683" data-name="Ellipse 3683" cx="4.868" cy="4.868" r="4.868" transform="translate(-5687.379 494.192)" fill="#2f2e41"/>
      <circle id="Ellipse_3684" data-name="Ellipse 3684" cx="3.956" cy="3.956" r="3.956" transform="translate(-5686.064 496.016)" fill="#ffb6b6"/>
      <path id="Path_7854" data-name="Path 7854" d="M638.106,245.389a4.532,4.532,0,0,0-6.89,3.955,10.517,10.517,0,0,0,6.283.121l.508-1.242.3,1.243a1.832,1.832,0,0,0,1.967,0A4.627,4.627,0,0,0,638.106,245.389Z" transform="translate(-6317.527 250.55)" fill="#2f2e41"/>
      <path id="Path_7855" data-name="Path 7855" d="M607.844,219.645a3.931,3.931,0,0,0-4.1.632,4.446,4.446,0,0,0-1.419,3.957,10.207,10.207,0,0,0,1.942,3.987,7.674,7.674,0,0,1,1.634,4.093,4.057,4.057,0,0,1-4.049,4.054A9.134,9.134,0,0,0,605.8,237.4a3.126,3.126,0,0,0,3.032-2.3,5.177,5.177,0,0,0-.717-2.832,20.029,20.029,0,0,1-1.4-4.609,4.632,4.632,0,0,1,.027-2.282,2.68,2.68,0,0,1,2.662-1.758l.453-.408A3.527,3.527,0,0,0,607.844,219.645Z" transform="translate(-6295.218 269.843)" fill="#2f2e41"/>
      <path id="Path_7856" data-name="Path 7856" d="M632.174,291.2a10.5,10.5,0,0,1-5.423,1.5H613.189l-.022-.018,1.167-3.259a3.5,3.5,0,0,1,2.976-2.042l.743-.046,1.771-1.527s4.772-.172,4.7-.253l2.891,1.739,0-.011,1.136.07a3.5,3.5,0,0,1,2.976,2.042Z" transform="translate(-6303.817 219.532)" fill="#0070fc"/>
      <path id="Path_7865" data-name="Path 7865" d="M695.95,290.064l-8.384-5.308a1.054,1.054,0,0,0-1.618.9l.082,9.153a1.054,1.054,0,0,0,2.029.391l1.091-2.653,3.041,6a1.2,1.2,0,1,0,2.143-1.087l-3.111-6.133,3.986.671a1.054,1.054,0,0,0,.739-1.93Z" transform="translate(-6359.104 220.266)" fill="#3f3d56"/>
    </g>
    <g id="Group_2609" data-name="Group 2609" transform="translate(5908.879 -181.731)">
      <path id="Path_7853-2" data-name="Path 7853" d="M624.8,239.545H602.263a2.417,2.417,0,0,0-2.414,2.413v13.377a2.418,2.418,0,0,0,2.414,2.414h14.37a10.587,10.587,0,0,0,10.578-10.578v-5.213a2.415,2.415,0,0,0-2.413-2.413Z" transform="translate(-6293.699 254.486)" fill="#fff"/>
      <circle id="Ellipse_3682-2" data-name="Ellipse 3682" cx="1.922" cy="1.922" r="1.922" transform="translate(-5687.507 492.783)" fill="#2f2e41"/>
      <circle id="Ellipse_3683-2" data-name="Ellipse 3683" cx="4.868" cy="4.868" r="4.868" transform="translate(-5687.379 494.192)" fill="#2f2e41"/>
      <circle id="Ellipse_3684-2" data-name="Ellipse 3684" cx="3.956" cy="3.956" r="3.956" transform="translate(-5686.064 496.016)" fill="#ffb6b6"/>
      <path id="Path_7854-2" data-name="Path 7854" d="M638.106,245.389a4.532,4.532,0,0,0-6.89,3.955,10.517,10.517,0,0,0,6.283.121l.508-1.242.3,1.243a1.832,1.832,0,0,0,1.967,0A4.627,4.627,0,0,0,638.106,245.389Z" transform="translate(-6317.527 250.55)" fill="#2f2e41"/>
      <path id="Path_7855-2" data-name="Path 7855" d="M607.844,219.645a3.931,3.931,0,0,0-4.1.632,4.446,4.446,0,0,0-1.419,3.957,10.207,10.207,0,0,0,1.942,3.987,7.674,7.674,0,0,1,1.634,4.093,4.057,4.057,0,0,1-4.049,4.054A9.134,9.134,0,0,0,605.8,237.4a3.126,3.126,0,0,0,3.032-2.3,5.177,5.177,0,0,0-.717-2.832,20.029,20.029,0,0,1-1.4-4.609,4.632,4.632,0,0,1,.027-2.282,2.68,2.68,0,0,1,2.662-1.758l.453-.408A3.527,3.527,0,0,0,607.844,219.645Z" transform="translate(-6295.218 269.843)" fill="#2f2e41"/>
      <path id="Path_7856-2" data-name="Path 7856" d="M632.174,291.2a10.5,10.5,0,0,1-5.423,1.5H613.189l-.022-.018,1.167-3.259a3.5,3.5,0,0,1,2.976-2.042l.743-.046,1.771-1.527s4.772-.172,4.7-.253l2.891,1.739,0-.011,1.136.07a3.5,3.5,0,0,1,2.976,2.042Z" transform="translate(-6303.817 219.532)" fill="#0070fc"/>
    </g>
    <g id="Group_2605" data-name="Group 2605" transform="translate(5863.479 -356.817)">
      <path id="Path_7848" data-name="Path 7848" d="M623.725,372.359H602.159a2.313,2.313,0,0,0-2.31,2.309v12.8a2.314,2.314,0,0,0,2.31,2.31h13.752a10.134,10.134,0,0,0,10.124-10.124v-4.989a2.312,2.312,0,0,0-2.309-2.309Z" transform="translate(-6293.789 262.957)" fill="#fff"/>
      <path id="Path_7849" data-name="Path 7849" d="M636.247,371.291h0l-.064.116a4.135,4.135,0,0,0-.971-4.222,6.437,6.437,0,0,0-3.847-1.747,6.248,6.248,0,0,0-3.108.242,8.042,8.042,0,0,0-3.44,3.157,3.443,3.443,0,0,0-.787,2.06,4.467,4.467,0,0,0,.8,1.9,2.442,2.442,0,0,1,.383,1.992,3.915,3.915,0,0,1-.707.987,1.324,1.324,0,0,0-.337,1.147.936.936,0,0,0,.7.606,2.466,2.466,0,0,0,.927-.022l7.985-1.206a3.4,3.4,0,0,0,2.47-5.011Z" transform="translate(-6312.404 268.352)" fill="#2f2e41"/>
      <circle id="Ellipse_3681" data-name="Ellipse 3681" cx="3.904" cy="3.904" r="3.904" transform="translate(-5686.002 636.791)" fill="#ffb9b9"/>
      <path id="Path_7850" data-name="Path 7850" d="M635.306,423.121a10.066,10.066,0,0,1-5.968,1.951h-11.98l-.071-.06,1.117-3.118a3.353,3.353,0,0,1,2.848-1.956l.711-.044,1.695-1.462s4.567-.163,4.5-.241l2.766,1.664,0-.011,1.087.067a3.351,3.351,0,0,1,2.848,1.956Z" transform="translate(-6307.215 227.666)" fill="#0e0071"/>
      <path id="Path_7851" data-name="Path 7851" d="M637.432,375.884c-.1-.533-.645-.777-1.11-.9a10.7,10.7,0,0,0-4.138-.227,4.524,4.524,0,0,0-2.768,1.246,3.723,3.723,0,0,0-.941,2.4,2.855,2.855,0,0,0,.342,1.523,1.411,1.411,0,0,0,1.173.756l.047.163a7.107,7.107,0,0,0,4.928-3.3,4.229,4.229,0,0,1-1.235,2,7.7,7.7,0,0,0,3.323-2.561A1.45,1.45,0,0,0,637.432,375.884Z" transform="translate(-6315.827 261.187)" fill="#2f2e41"/>
    </g>
    <g id="Group_2608" data-name="Group 2608" transform="translate(5816.969 -323.817)">
      <path id="Path_7848-2" data-name="Path 7848" d="M623.725,372.359H602.159a2.313,2.313,0,0,0-2.31,2.309v12.8a2.314,2.314,0,0,0,2.31,2.31h13.752a10.134,10.134,0,0,0,10.124-10.124v-4.989a2.312,2.312,0,0,0-2.309-2.309Z" transform="translate(-6293.789 262.957)" fill="#fff"/>
      <path id="Path_7849-2" data-name="Path 7849" d="M636.247,371.291h0l-.064.116a4.135,4.135,0,0,0-.971-4.222,6.437,6.437,0,0,0-3.847-1.747,6.248,6.248,0,0,0-3.108.242,8.042,8.042,0,0,0-3.44,3.157,3.443,3.443,0,0,0-.787,2.06,4.467,4.467,0,0,0,.8,1.9,2.442,2.442,0,0,1,.383,1.992,3.915,3.915,0,0,1-.707.987,1.324,1.324,0,0,0-.337,1.147.936.936,0,0,0,.7.606,2.466,2.466,0,0,0,.927-.022l7.985-1.206a3.4,3.4,0,0,0,2.47-5.011Z" transform="translate(-6312.404 268.352)" fill="#2f2e41"/>
      <circle id="Ellipse_3681-2" data-name="Ellipse 3681" cx="3.904" cy="3.904" r="3.904" transform="translate(-5686.002 636.791)" fill="#ffb9b9"/>
      <path id="Path_7850-2" data-name="Path 7850" d="M635.306,423.121a10.066,10.066,0,0,1-5.968,1.951h-11.98l-.071-.06,1.117-3.118a3.353,3.353,0,0,1,2.848-1.956l.711-.044,1.695-1.462s4.567-.163,4.5-.241l2.766,1.664,0-.011,1.087.067a3.351,3.351,0,0,1,2.848,1.956Z" transform="translate(-6307.215 227.666)" fill="#0070fc"/>
      <path id="Path_7851-2" data-name="Path 7851" d="M637.432,375.884c-.1-.533-.645-.777-1.11-.9a10.7,10.7,0,0,0-4.138-.227,4.524,4.524,0,0,0-2.768,1.246,3.723,3.723,0,0,0-.941,2.4,2.855,2.855,0,0,0,.342,1.523,1.411,1.411,0,0,0,1.173.756l.047.163a7.107,7.107,0,0,0,4.928-3.3,4.229,4.229,0,0,1-1.235,2,7.7,7.7,0,0,0,3.323-2.561A1.45,1.45,0,0,0,637.432,375.884Z" transform="translate(-6315.827 261.187)" fill="#2f2e41"/>
    </g>
    <g id="Group_2606" data-name="Group 2606" transform="translate(5887.615 -494.605)">
      <circle id="Ellipse_3686" data-name="Ellipse 3686" cx="4.694" cy="4.694" r="4.694" transform="translate(-5663.765 772.442)" fill="#ffb8b8"/>
      <path id="Path_7859" data-name="Path 7859" d="M637.444,563.424a10.194,10.194,0,0,1-6.369,2.227H619.368l1.11-3.1a3.392,3.392,0,0,1,2.881-1.978l.719-.044,1.715-1.479s4.62-.165,4.551-.244l2.8,1.683,0-.012,1.1.067a3.39,3.39,0,0,1,2.881,1.978Z" transform="translate(-6287.125 224.875)" fill="#0070fc"/>
      <path id="Path_7860" data-name="Path 7860" d="M643.1,505.647a10.4,10.4,0,0,0,.045-1.054,4.963,4.963,0,0,0-.374-2.032,3.123,3.123,0,0,0-1.634-1.579,2.981,2.981,0,0,0-2.235,0,4.5,4.5,0,0,0-2.123-.773,2.375,2.375,0,0,0-2.024.859,3.3,3.3,0,0,1-.354.459,1.726,1.726,0,0,1-1.443.226l.671.575-.812.212.948.575a2.975,2.975,0,0,0-1.224,2.842,6.011,6.011,0,0,0,1.2,2.817,3.839,3.839,0,0,0,.183-1.667,3.777,3.777,0,0,1,.034-.548,10.66,10.66,0,0,0,6.254.026l.428-1.048.18.018.248,1.031a2.294,2.294,0,0,0,1.691.22c.027.159.044.322.057.478.048-.187.09-.375.128-.564a1.673,1.673,0,0,0,.214-.136A4.6,4.6,0,0,0,643.1,505.647Z" transform="translate(-6297.221 269.843)" fill="#2f2e41"/>
    </g>
    <g id="Group_2607" data-name="Group 2607" transform="translate(5841.351 -461.605)">
      <circle id="Ellipse_3686-2" data-name="Ellipse 3686" cx="4.694" cy="4.694" r="4.694" transform="translate(-5663.765 772.442)" fill="#ffb8b8"/>
      <path id="Path_7859-2" data-name="Path 7859" d="M637.444,563.424a10.194,10.194,0,0,1-6.369,2.227H619.368l1.11-3.1a3.392,3.392,0,0,1,2.881-1.978l.719-.044,1.715-1.479s4.62-.165,4.551-.244l2.8,1.683,0-.012,1.1.067a3.39,3.39,0,0,1,2.881,1.978Z" transform="translate(-6287.125 224.875)" fill="#0e0071"/>
      <path id="Path_7860-2" data-name="Path 7860" d="M643.1,505.647a10.4,10.4,0,0,0,.045-1.054,4.963,4.963,0,0,0-.374-2.032,3.123,3.123,0,0,0-1.634-1.579,2.981,2.981,0,0,0-2.235,0,4.5,4.5,0,0,0-2.123-.773,2.375,2.375,0,0,0-2.024.859,3.3,3.3,0,0,1-.354.459,1.726,1.726,0,0,1-1.443.226l.671.575-.812.212.948.575a2.975,2.975,0,0,0-1.224,2.842,6.011,6.011,0,0,0,1.2,2.817,3.839,3.839,0,0,0,.183-1.667,3.777,3.777,0,0,1,.034-.548,10.66,10.66,0,0,0,6.254.026l.428-1.048.18.018.248,1.031a2.294,2.294,0,0,0,1.691.22c.027.159.044.322.057.478.048-.187.09-.375.128-.564a1.673,1.673,0,0,0,.214-.136A4.6,4.6,0,0,0,643.1,505.647Z" transform="translate(-6297.221 269.843)" fill="#2f2e41"/>
    </g>
  </g>
</svg>
