<svg xmlns="http://www.w3.org/2000/svg" width="243.651" height="190.639" viewBox="0 0 243.651 190.639">
  <g id="Group_2421" data-name="Group 2421" transform="translate(-67.703 -176.772)">
    <g id="Group_2412" data-name="Group 2412" transform="translate(67.703 176.772)">
      <circle id="Ellipse_44" data-name="Ellipse 44" cx="5.457" cy="5.457" r="5.457" transform="translate(155.507)" fill="#00c158" opacity="0.4"/>
      <circle id="Ellipse_44-2" data-name="Ellipse 44" cx="5.457" cy="5.457" r="5.457" transform="translate(16.973 149.048)" fill="#ba0101"/>
      <circle id="Ellipse_44-3" data-name="Ellipse 44" cx="3.327" cy="3.327" r="3.327" transform="translate(218.349 34.245)" fill="#fa0"/>
      <circle id="Ellipse_44-4" data-name="Ellipse 44" cx="3.327" cy="3.327" r="3.327" transform="translate(0 60.317)" fill="#fa0"/>
      <circle id="Ellipse_44-5" data-name="Ellipse 44" cx="3.327" cy="3.327" r="3.327" transform="translate(81.786 10.914)" fill="#0070fc"/>
    </g>
    <g id="Group_2414" data-name="Group 2414" transform="translate(126.398 245.229)">
      <path id="Path_7677" data-name="Path 7677" d="M468.154,401.458H341.381a7.633,7.633,0,0,1-7.624-7.624v-75.8a7.633,7.633,0,0,1,7.624-7.624H468.154a7.632,7.632,0,0,1,7.624,7.624v75.8A7.633,7.633,0,0,1,468.154,401.458ZM341.381,311.715a6.324,6.324,0,0,0-6.317,6.317v75.8a6.324,6.324,0,0,0,6.317,6.317H468.154a6.324,6.324,0,0,0,6.317-6.317v-75.8a6.324,6.324,0,0,0-6.317-6.317Z" transform="translate(-333.757 -299.517)" fill="#0e0071"/>
      <path id="Path_7678" data-name="Path 7678" d="M383.2,337.3a5.446,5.446,0,1,1,5.446-5.446A5.446,5.446,0,0,1,383.2,337.3Zm0-9.584a4.139,4.139,0,1,0,4.139,4.139A4.139,4.139,0,0,0,383.2,327.715Z" transform="translate(-358.589 -308.546)" fill="#0e0071"/>
      <path id="Path_7679" data-name="Path 7679" d="M594.2,337.3a5.446,5.446,0,1,1,5.445-5.446A5.446,5.446,0,0,1,594.2,337.3Zm0-9.584a4.139,4.139,0,1,0,4.138,4.139A4.139,4.139,0,0,0,594.2,327.715Z" transform="translate(-477.668 -308.546)" fill="#0e0071"/>
      <path id="Path_7680" data-name="Path 7680" d="M384.485,399.754H360.96a3.707,3.707,0,0,1-3.7-3.7V382.111a3.707,3.707,0,0,1,3.7-3.7h23.525a3.707,3.707,0,0,1,3.7,3.7v13.941A3.707,3.707,0,0,1,384.485,399.754Z" transform="translate(-347.02 -337.893)" fill="#657180" opacity="0.1"/>
      <path id="Path_7681" data-name="Path 7681" d="M488.485,399.754H464.96a3.708,3.708,0,0,1-3.7-3.7V382.111a3.708,3.708,0,0,1,3.7-3.7h23.525a3.708,3.708,0,0,1,3.7,3.7v13.941A3.707,3.707,0,0,1,488.485,399.754Z" transform="translate(-405.713 -339.082)" fill="#657180" opacity="0.047"/>
      <path id="Path_7682" data-name="Path 7682" d="M569.525,379.408a3.271,3.271,0,0,0-3.267,3.267v13.941a3.271,3.271,0,0,0,3.267,3.267H593.05a3.271,3.271,0,0,0,3.267-3.267V382.675a3.271,3.271,0,0,0-3.267-3.267Z" transform="translate(-464.97 -338.457)" fill="#657180" opacity="0.1"/>
      <path id="Path_7683" data-name="Path 7683" d="M384.985,463.754H361.46a3.707,3.707,0,0,1-3.7-3.7V446.111a3.707,3.707,0,0,1,3.7-3.7h23.525a3.707,3.707,0,0,1,3.7,3.7v13.941A3.707,3.707,0,0,1,384.985,463.754Z" transform="translate(-347.302 -374.011)" fill="#657180" opacity="0.047"/>
      <path id="Path_7684" data-name="Path 7684" d="M488.985,463.754H465.46a3.707,3.707,0,0,1-3.7-3.7V446.111a3.707,3.707,0,0,1,3.7-3.7h23.525a3.707,3.707,0,0,1,3.7,3.7v13.941A3.707,3.707,0,0,1,488.985,463.754Z" transform="translate(-405.995 -374.011)" fill="#657180" opacity="0.1"/>
      <path id="Path_7685" data-name="Path 7685" d="M592.985,463.754H569.46a3.707,3.707,0,0,1-3.7-3.7V446.111a3.707,3.707,0,0,1,3.7-3.7h23.525a3.707,3.707,0,0,1,3.7,3.7v13.941A3.707,3.707,0,0,1,592.985,463.754Z" transform="translate(-464.688 -374.011)" fill="#657180" opacity="0.047"/>
      <path id="Path_7686" data-name="Path 7686" d="M388.282,310.24a1.527,1.527,0,0,1-1.525-1.525V286.933a1.525,1.525,0,1,1,3.049,0v21.782A1.526,1.526,0,0,1,388.282,310.24Z" transform="translate(-363.668 -285.408)" fill="#0e0071"/>
      <path id="Path_7687" data-name="Path 7687" d="M599.282,310.24a1.527,1.527,0,0,1-1.525-1.525V286.933a1.525,1.525,0,1,1,3.049,0v21.782A1.527,1.527,0,0,1,599.282,310.24Z" transform="translate(-482.747 -285.408)" fill="#0e0071"/>
      <path id="Path_395" data-name="Path 395" d="M378.18,387.788a2.957,2.957,0,0,1-1.779-.591l-.032-.024-6.7-5.126a2.978,2.978,0,0,1,3.623-4.726l4.34,3.328,10.256-13.38a2.976,2.976,0,0,1,4.173-.551h0l-.064.088.065-.088a2.98,2.98,0,0,1,.551,4.174l-12.063,15.731a2.978,2.978,0,0,1-2.368,1.161Z" transform="translate(-353.366 -330.949)" fill="#0070fc"/>
      <path id="Path_395-2" data-name="Path 395" d="M485.18,450.788a2.957,2.957,0,0,1-1.779-.591l-.032-.024-6.7-5.126a2.978,2.978,0,1,1,3.623-4.726l4.34,3.328,10.256-13.38a2.976,2.976,0,0,1,4.173-.551h0l-.064.088.065-.088a2.98,2.98,0,0,1,.551,4.174l-12.063,15.731a2.978,2.978,0,0,1-2.368,1.161Z" transform="translate(-413.752 -366.503)" fill="#0070fc"/>
      <path id="Path_395-3" data-name="Path 395" d="M586.18,387.788a2.957,2.957,0,0,1-1.779-.591l-.032-.024-6.7-5.126a2.978,2.978,0,0,1,3.623-4.726l4.34,3.328,10.256-13.38a2.976,2.976,0,0,1,4.173-.551h0l-.064.088.065-.088a2.98,2.98,0,0,1,.551,4.174l-12.063,15.731a2.978,2.978,0,0,1-2.368,1.161Z" transform="translate(-470.751 -330.949)" fill="#0070fc"/>
    </g>
    <g id="Group_2415" data-name="Group 2415" transform="translate(268.419 281.49)">
      <g id="Group_2338" data-name="Group 2338" transform="translate(13.378 76.758)">
        <path id="Path_7627" data-name="Path 7627" d="M358.217,428.885h-2.056l-.978-7.93h3.034Z" transform="translate(-351.075 -420.955)" fill="#ffb6b6"/>
        <path id="Path_7628" data-name="Path 7628" d="M339.383,444.808h0a1.766,1.766,0,0,0-.1.581h0a.7.7,0,0,0,.7.7h6.367a.476.476,0,0,0,.476-.476v-.265a2.035,2.035,0,0,0-.333-1.779s-.806.769-2.01-.435l-.355-.643-2.571,1.88-1.425.175c-.312.038-.588-.006-.748.264h0Z" transform="translate(-339.285 -436.925)" fill="#0e0071"/>
      </g>
      <g id="Group_2339" data-name="Group 2339" transform="translate(35.766 74.87)">
        <path id="Path_7629" data-name="Path 7629" d="M433.717,420.894l-1.879.835-4.115-6.849,2.773-1.233Z" transform="translate(-427.26 -413.648)" fill="#ffb6b6"/>
        <path id="Path_7630" data-name="Path 7630" d="M425.934,440.988h0a1.766,1.766,0,0,0,.147.571h0a.7.7,0,0,0,.921.354l5.818-2.587a.476.476,0,0,0,.242-.628l-.108-.242a2.035,2.035,0,0,0-1.027-1.49s-.424,1.03-2.014.419l-.586-.444-1.585,2.762-1.231.739c-.269.162-.54.233-.577.545Z" transform="translate(-425.932 -430.922)" fill="#0e0071"/>
      </g>
      <path id="Path_7631" data-name="Path 7631" d="M344.386,259.606l-1.828,3.839,3.107,39.848h3.886l1.6-26.139L365.1,303.292h4.767l-7.2-18.645-4.935-24.311Z" transform="translate(-328.335 -224.537)" fill="#eff0f2"/>
      <path id="Path_7633" data-name="Path 7633" d="M406.044,219.758l-.131,10.23-2.545,9.12-2.035-.759.9-8.359-.119-11.312Z" transform="translate(-371.922 -194.184)" fill="#ffb6b6"/>
      <ellipse id="Ellipse_3613" data-name="Ellipse 3613" cx="2.413" cy="1.433" rx="2.413" ry="1.433" transform="translate(28.184 48.255) rotate(-79.681)" fill="#ffb6b6"/>
      <path id="Path_7635" data-name="Path 7635" d="M314.3,207.108l-5.724,8.48-7.132,6.227-1.285-1.751,5.342-6.492,6.108-9.522Z" transform="translate(-296.895 -183.336)" fill="#ffb6b6"/>
      <ellipse id="Ellipse_3614" data-name="Ellipse 3614" cx="2.413" cy="1.433" rx="2.413" ry="1.433" transform="matrix(0.69, -0.724, 0.724, 0.69, 0, 39.475)" fill="#ffb6b6"/>
      <g id="Group_2342" data-name="Group 2342" transform="translate(12.464 10.451)">
        <path id="Path_7632" data-name="Path 7632" d="M357.159,164.331h-4.82l-1.768,2.774-3.987,1.907.867,11.962-.435,8.722.6-.017a30.914,30.914,0,0,1,12.453,2.157,5.019,5.019,0,0,0,2.988.407,5.857,5.857,0,0,0-.693-1.734c-.347-.347-.52-.633-.347-.837s.52-.377.173-.723a1.208,1.208,0,0,1-.347-.784l-1.04-7.711,2.08-10.922-4.334-2.427-1.387-2.774Z" transform="translate(-343.785 -164.331)" fill="#0e0071"/>
        <path id="Path_7634" data-name="Path 7634" d="M397.168,181.451s2.872.445,2.91,2.91,2.811,6.452,1.078,9.572l-4.507.693-2.427-8.841,2.774-4.681" transform="translate(-379.113 -176.771)" fill="#0e0071"/>
        <path id="Path_7636" data-name="Path 7636" d="M343.414,173.347s2.157,1.948.836,4.029-1.19,6.936-4.352,8.594l-4.149-1.894c.349-3.419.553-6.963,2.823-8.723l4.887-2.391" transform="translate(-335.749 -170.732)" fill="#0e0071"/>
      </g>
      <g id="Group_2340" data-name="Group 2340" transform="translate(17.711 0)">
        <circle id="Ellipse_3615" data-name="Ellipse 3615" cx="4.313" cy="4.313" r="4.313" transform="translate(0.657 1.111)" fill="#ffb6b6"/>
        <path id="Path_7637" data-name="Path 7637" d="M364.193,132.85c.238.04.516-.535.783-1.1a6.957,6.957,0,0,0,.94-2.975c.023-.9-.227-.663-.47-2.662-.08-.659-1.207-.658-1.436-.971-.387-.529.207-.747-.757-1.065-1.8-.6-2.621.329-3.767.409-.029,0-.6.558-.914.586a1.558,1.558,0,0,1-1.717-.883c-.336-.792-.559,1.522-.258,1.809a6.079,6.079,0,0,1,.706.9c.013.05-1.046-1.123-1.223-.639-.127.348.273,2.138.6,2.205.271.056.932-.835.783-.47-.346.848,1.736,1.389,4.228-.313.088-.06,0,.036.313.783.389.942.477.993.47,1.253-.015.562-.436.727-.313,1.1a.759.759,0,0,0,.783.47c.331-.068.387-.477.626-.47.2.006.448.315.47.626.046.656-.926.837-1.1,1.722C362.844,133.663,363.975,132.812,364.193,132.85Z" transform="translate(-356.056 -123.882)" fill="#2f2e41"/>
      </g>
    </g>
  </g>
</svg>
