<svg xmlns="http://www.w3.org/2000/svg" width="18.003" height="18.004" viewBox="0 0 18.003 18.004">
  <g id="Group_2311" data-name="Group 2311" transform="translate(-1864.581 -996.507)">
    <path id="Path_1948" data-name="Path 1948" d="M35.011,25.227a9,9,0,0,0-7.629,13.787l.214.34-.909,3.32,3.407-.893.329.195A8.989,8.989,0,0,0,35,43.23h0a9,9,0,0,0,0-18Z" transform="translate(1838.575 971.28)" fill="#57d163"/>
    <path id="Path_1949" data-name="Path 1949" d="M52.57,52.858c-.2-.451-.416-.46-.609-.467l-.519-.006a.994.994,0,0,0-.722.339,3.034,3.034,0,0,0-.947,2.257,5.265,5.265,0,0,0,1.1,2.8A11.1,11.1,0,0,0,55.5,61.862c2.286.9,2.751.722,3.247.677a2.732,2.732,0,0,0,1.826-1.286,2.264,2.264,0,0,0,.158-1.286c-.068-.113-.248-.18-.519-.316s-1.6-.79-1.849-.88-.428-.135-.609.136-.7.88-.856,1.061-.316.2-.586.068a7.387,7.387,0,0,1-2.176-1.343,8.165,8.165,0,0,1-1.505-1.874c-.158-.271-.017-.417.119-.552s.271-.316.406-.474a1.834,1.834,0,0,0,.27-.451.5.5,0,0,0-.023-.474c-.068-.135-.593-1.474-.834-2.009" transform="translate(1818.306 948.12)" fill="#fff" fill-rule="evenodd"/>
  </g>
</svg>
