<svg xmlns="http://www.w3.org/2000/svg" width="155.016" height="151.314" viewBox="0 0 155.016 151.314">
  <g id="Group_3072" data-name="Group 3072" transform="translate(-102 -165)">
    <g id="undraw_no_data_re_kwbl" transform="translate(101.999 164.996)">
      <path id="Path_7910" data-name="Path 7910" d="M404.368,189.394H362.6a3.6,3.6,0,0,0-3.59,3.59v92.835l-.479.146L348.282,289.1a1.917,1.917,0,0,1-2.391-1.271l-30.48-99.561a1.916,1.916,0,0,1,1.271-2.391l15.79-4.835,45.777-14.012,15.79-4.835a1.912,1.912,0,0,1,2.391,1.269l7.791,25.448Z" transform="translate(-305.956 -155.361)" fill="#e3f4ff" opacity="0.5"/>
      <path id="Path_7911" data-name="Path 7911" d="M383.708,167.467l-9.39-30.671a4.068,4.068,0,0,0-5.082-2.7l-22.2,6.8-45.775,14.014-22.2,6.8a4.073,4.073,0,0,0-2.7,5.082l32.093,104.822a4.075,4.075,0,0,0,3.892,2.879,4.019,4.019,0,0,0,1.19-.18l15.218-4.658.479-.148V269l-.479.146-15.36,4.7a3.594,3.594,0,0,1-4.483-2.382L276.821,166.644a3.585,3.585,0,0,1,2.382-4.483l22.2-6.8,45.775-14.012,22.2-6.8a3.587,3.587,0,0,1,4.483,2.382l9.347,30.532.148.479h.5Z" transform="translate(-276.182 -133.913)" fill="#3f3d56"/>
      <path id="Path_7912" data-name="Path 7912" d="M382.213,175.068a2.158,2.158,0,0,1-2.061-1.524l-3.083-10.07a2.154,2.154,0,0,1,1.429-2.69l42.112-12.893a2.156,2.156,0,0,1,2.691,1.429l3.083,10.07a2.157,2.157,0,0,1-1.429,2.691l-42.112,12.893a2.148,2.148,0,0,1-.629.095Z" transform="translate(-352.848 -144.471)" fill="#0070fc"/>
      <circle id="Ellipse_3706" data-name="Ellipse 3706" cx="4.787" cy="4.787" r="4.787" transform="translate(40.728 1.189)" fill="#0070fc"/>
      <circle id="Ellipse_3707" data-name="Ellipse 3707" cx="3.031" cy="3.031" r="3.031" transform="translate(42.484 2.944)" fill="#fff"/>
      <path id="Path_7913" data-name="Path 7913" d="M615.256,395.1h-80.9a2.037,2.037,0,0,1-2.035-2.034v-96.94a2.037,2.037,0,0,1,2.034-2.035h80.9a2.037,2.037,0,0,1,2.034,2.035v96.94A2.037,2.037,0,0,1,615.256,395.1Z" transform="translate(-471.009 -255.745)" fill="#e3f4ff" opacity="0.6"/>
      <path id="Path_7914" data-name="Path 7914" d="M550.272,274.087H499.887a4.075,4.075,0,0,0-4.069,4.069v97.61l.479-.146V278.156a3.6,3.6,0,0,1,3.59-3.59H550.42Zm43.922,0H499.887a4.075,4.075,0,0,0-4.069,4.069V387.782a4.075,4.075,0,0,0,4.069,4.069h94.307a4.075,4.075,0,0,0,4.069-4.069V278.156A4.075,4.075,0,0,0,594.194,274.087Zm3.59,113.695a3.6,3.6,0,0,1-3.59,3.59H499.887a3.6,3.6,0,0,1-3.59-3.59V278.156a3.6,3.6,0,0,1,3.59-3.59h94.307a3.6,3.6,0,0,1,3.59,3.59Z" transform="translate(-443.246 -240.533)" fill="#3f3d56"/>
      <path id="Path_7915" data-name="Path 7915" d="M655.014,270.927H610.973a2.157,2.157,0,0,1-2.154-2.154V258.241a2.157,2.157,0,0,1,2.154-2.154h44.042a2.157,2.157,0,0,1,2.154,2.154v10.532A2.157,2.157,0,0,1,655.014,270.927Z" transform="translate(-529.198 -226.841)" fill="#0070fc"/>
      <circle id="Ellipse_3708" data-name="Ellipse 3708" cx="4.787" cy="4.787" r="4.787" transform="translate(99.008 20.39)" fill="#0070fc"/>
      <circle id="Ellipse_3709" data-name="Ellipse 3709" cx="2.916" cy="2.916" r="2.916" transform="translate(100.879 22.261)" fill="#fff"/>
    </g>
    <text id="_" data-name="?" transform="translate(205 284)" fill="#657180" font-size="78" font-family="Poppins-Medium, Poppins" font-weight="500" letter-spacing="0.01em"><tspan x="-20" y="0">?</tspan></text>
  </g>
</svg>
