<svg xmlns="http://www.w3.org/2000/svg" width="152.782" height="112.498" viewBox="0 0 152.782 112.498">
  <g id="undraw_team_chat_re_vbq1" transform="translate(0 0)">
    <path id="Path_7872" data-name="Path 7872" d="M533.082,187.54H480.44a3.16,3.16,0,0,1-3.157-3.157V153.33a2.364,2.364,0,0,1,2.361-2.361h54.2a2.4,2.4,0,0,1,2.4,2.4v31.015A3.16,3.16,0,0,1,533.082,187.54Z" transform="translate(-423.028 -148.659)" fill="#fff"/>
    <path id="Path_7873" data-name="Path 7873" d="M533.082,187.54H480.44a3.16,3.16,0,0,1-3.157-3.157V153.33a2.364,2.364,0,0,1,2.361-2.361h54.2a2.4,2.4,0,0,1,2.4,2.4v31.015A3.16,3.16,0,0,1,533.082,187.54Zm-53.438-36.21a2,2,0,0,0-2,2v31.053a2.8,2.8,0,0,0,2.8,2.8h52.642a2.8,2.8,0,0,0,2.8-2.8V153.367a2.04,2.04,0,0,0-2.038-2.038Z" transform="translate(-423.028 -148.659)" fill="#3f3d56"/>
    <path id="Path_7874" data-name="Path 7874" d="M497.669,207.082h46.87a2.886,2.886,0,0,0,2.886-2.886V181.549a2.886,2.886,0,0,0-2.886-2.886h-46.87a2.886,2.886,0,0,0-2.886,2.886V204.2A2.886,2.886,0,0,0,497.669,207.082Z" transform="translate(-437.371 -171.358)" fill="#f2f2f2"/>
    <path id="Path_7875" data-name="Path 7875" d="M535.724,142.664H476.559v-1.515a3.006,3.006,0,0,1,3.02-2.985H532.7a3.006,3.006,0,0,1,3.02,2.985Z" transform="translate(-422.434 -138.163)" fill="#657180"/>
    <circle id="Ellipse_3700" data-name="Ellipse 3700" cx="0.773" cy="0.773" r="0.773" transform="translate(59.05 1.482)" fill="#fff"/>
    <circle id="Ellipse_3701" data-name="Ellipse 3701" cx="0.773" cy="0.773" r="0.773" transform="translate(61.983 1.482)" fill="#fff"/>
    <circle id="Ellipse_3702" data-name="Ellipse 3702" cx="0.773" cy="0.773" r="0.773" transform="translate(64.916 1.482)" fill="#fff"/>
    <path id="Path_7876" data-name="Path 7876" d="M529.986,236.342a5.953,5.953,0,1,1,5.953-5.953A5.953,5.953,0,0,1,529.986,236.342Z" transform="translate(-461.345 -208.875)" fill="#657180"/>
    <path id="Path_7877" data-name="Path 7877" d="M637.9,271.323H614.866a1.477,1.477,0,0,1-1.491-1.344,1.445,1.445,0,0,1,1.44-1.542h23.032a1.481,1.481,0,0,1,1.5,1.35,1.445,1.445,0,0,1-1.44,1.536Z" transform="translate(-534.569 -244.938)" fill="#3f3d56"/>
    <path id="Path_7878" data-name="Path 7878" d="M625.818,237.323H614.866a1.477,1.477,0,0,1-1.491-1.344,1.445,1.445,0,0,1,1.44-1.542h10.946a1.481,1.481,0,0,1,1.5,1.35,1.445,1.445,0,0,1-1.44,1.536Z" transform="translate(-534.569 -217.071)" fill="#3f3d56"/>
    <path id="Path_7879" data-name="Path 7879" d="M914.126,550.808a1.814,1.814,0,0,0-1.412-2.4l-1.088-6.353-2.445,2.289,1.408,5.682a1.824,1.824,0,0,0,3.538.778Z" transform="translate(-777.019 -469.204)" fill="#ffb8b8"/>
    <path id="Path_7880" data-name="Path 7880" d="M888.117,473.934l-2.4.63a.453.453,0,0,1-.548-.314l-4.314-15.284-1.3-3.9a2.348,2.348,0,0,1,2.509-3.076h0a2.347,2.347,0,0,1,1.971,1.665l3.447,11.651.973,8.136a.453.453,0,0,1-.237.452.446.446,0,0,1-.1.037Z" transform="translate(-752.635 -395.37)" fill="#ccc"/>
    <circle id="Ellipse_3703" data-name="Ellipse 3703" cx="4.43" cy="4.43" r="4.43" transform="translate(122.279 45.184)" fill="#ffb8b8"/>
    <path id="Path_7881" data-name="Path 7881" d="M620.506,569.671l-2.12-.631,1.424-8.476,3.128.931Z" transform="translate(-506.841 -459.45)" fill="#ffb8b8"/>
    <path id="Path_7882" data-name="Path 7882" d="M775.19,742.844l-6.834-2.034.026-.086a2.775,2.775,0,0,1,3.452-1.869h0l4.174,1.242Z" transform="translate(-661.597 -630.407)" fill="#2f2e41"/>
    <path id="Path_7883" data-name="Path 7883" d="M744.046,571.689h-2.211l-1.052-8.53h2.182Z" transform="translate(-607.16 -461.576)" fill="#ffb8b8"/>
    <path id="Path_7884" data-name="Path 7884" d="M906.1,747.473h-7.13v-.09a2.775,2.775,0,0,1,2.775-2.775H906.1Z" transform="translate(-768.652 -635.217)" fill="#2f2e41"/>
    <path id="Path_7885" data-name="Path 7885" d="M796.648,564.794h-2.22a.812.812,0,0,1-.8-.958c-1.416-.63,6.208-37.192,8.009-36.483l.059-.085,9.071.74c4.063,8.131,6.635,21.587,9.041,35.633a.812.812,0,0,1-.747,1.01l-2.495.121a.808.808,0,0,1-.793-.509l-9.558-23.895a.258.258,0,0,0-.257-.17.265.265,0,0,0-.249.182l-8.295,23.869A.813.813,0,0,1,796.648,564.794Z" transform="translate(-682.169 -457.081)" fill="#657180"/>
    <path id="Path_7886" data-name="Path 7886" d="M846.3,461.205l-.069-.005-9.658-.729,1.694-10.774a5.641,5.641,0,0,1,4.82-4.729h0l.224-.03a5.574,5.574,0,0,1,5.066,2.027,5.644,5.644,0,0,1,.966,5.442Z" transform="translate(-717.505 -389.563)" fill="#ccc"/>
    <path id="Path_7887" data-name="Path 7887" d="M872.551,388.855c-3.046,1.394-7.18,1.144-11.905,0,.654-1.791,1.164-3.521.586-4.791a3.868,3.868,0,0,1-.127-3.1,5.954,5.954,0,0,1,5.494-3.657h0a5.953,5.953,0,0,1,5.953,5.953Z" transform="translate(-737.24 -334.173)" fill="#2f2e41"/>
    <path id="Path_7888" data-name="Path 7888" d="M674.295,241.392h3.788v4.658h-7.937v-.509A4.149,4.149,0,0,1,674.295,241.392Z" transform="translate(-549.265 -197.85)" fill="#2f2e41"/>
    <path id="Path_7889" data-name="Path 7889" d="M821.484,555.676a1.814,1.814,0,0,0-.125-2.778l2.017-6.122-3.233.877-1.419,5.679a1.824,1.824,0,0,0,2.76,2.345Z" transform="translate(-702.629 -473.07)" fill="#ffb8b8"/>
    <path id="Path_7890" data-name="Path 7890" d="M822.8,474.127l-2.416-.568a.453.453,0,0,1-.338-.534l3.352-15.523.676-4.055a2.348,2.348,0,0,1,3.657-1.542h0a2.347,2.347,0,0,1,.96,2.394l-2.415,11.908-2.953,7.643a.453.453,0,0,1-.421.288A.446.446,0,0,1,822.8,474.127Z" transform="translate(-703.952 -394.967)" fill="#ccc"/>
    <path id="Path_7891" data-name="Path 7891" d="M709.405,760.2H640.68a.18.18,0,0,1,0-.361h68.725a.18.18,0,0,1,0,.361Z" transform="translate(-556.803 -647.699)" fill="#ccc"/>
    <path id="Path_7892" data-name="Path 7892" d="M259.17,488.992a1.9,1.9,0,0,0-.283.1l-7.517-4.849.1-2.171-3.256-.585-.557,3.825a1.443,1.443,0,0,0,.829,1.521l9.258,4.226a1.893,1.893,0,1,0,1.422-2.064Z" transform="translate(-234.813 -419.556)" fill="#ffb8b8"/>
    <path id="Path_7893" data-name="Path 7893" d="M245.254,461.889l-4.031-.744a.812.812,0,0,1-.621-1.061l1.323-3.867a2.254,2.254,0,1,1,4.431.832l-.144,4.071a.812.812,0,0,1-.959.769Z" transform="translate(-229.004 -397.339)" fill="#3f3d56"/>
    <path id="Path_7894" data-name="Path 7894" d="M373.983,433.857H305.258a3.407,3.407,0,0,0-1.688.445,3.341,3.341,0,0,0-.355.233,3.421,3.421,0,0,0-1.383,2.749V473a3.43,3.43,0,0,0,3.427,3.427h68.725A3.43,3.43,0,0,0,377.41,473V437.284A3.43,3.43,0,0,0,373.983,433.857Z" transform="translate(-279.224 -380.52)" fill="#fff"/>
    <path id="Path_7895" data-name="Path 7895" d="M373.983,433.857H305.258a3.407,3.407,0,0,0-1.688.445,3.341,3.341,0,0,0-.355.233,3.421,3.421,0,0,0-1.383,2.749V473a3.43,3.43,0,0,0,3.427,3.427h68.725A3.43,3.43,0,0,0,377.41,473V437.284A3.43,3.43,0,0,0,373.983,433.857ZM377.049,473a3.071,3.071,0,0,1-3.066,3.066H305.258A3.071,3.071,0,0,1,302.191,473V437.284a3.084,3.084,0,0,1,2.125-2.919l.074-.023a3.067,3.067,0,0,1,.868-.124h68.725a3.071,3.071,0,0,1,3.066,3.066Z" transform="translate(-279.224 -380.52)" fill="#3f3d56"/>
    <path id="Path_7896" data-name="Path 7896" d="M343.794,459.526a1.621,1.621,0,0,1-.783-.2l-35.9-19.761a.18.18,0,1,1,.174-.316l35.9,19.761a1.26,1.26,0,0,0,1.2.011l36.494-19.252a.18.18,0,1,1,.168.319l-36.494,19.252A1.622,1.622,0,0,1,343.794,459.526Z" transform="translate(-283.472 -384.919)" fill="#3f3d56"/>
    <path id="Path_7897" data-name="Path 7897" d="M335.891,606.742H330.84a1.443,1.443,0,1,1,0-2.886h5.051a1.443,1.443,0,1,1,0,2.886Z" transform="translate(-301.818 -519.855)" fill="#3f3d56"/>
    <path id="Path_7898" data-name="Path 7898" d="M341.844,633.743h-11a1.443,1.443,0,1,1,0-2.886h11a1.443,1.443,0,0,1,0,2.886Z" transform="translate(-301.818 -541.984)" fill="#3f3d56"/>
    <circle id="Ellipse_3704" data-name="Ellipse 3704" cx="5.772" cy="5.772" r="5.772" transform="translate(54.535 68.85)" fill="#657180"/>
    <path id="Path_7899" data-name="Path 7899" d="M364.769,449.53l25.438,10.613a.361.361,0,0,0,.274,0l26.226-10.613a.361.361,0,0,0-.135-.7H364.907a.361.361,0,0,0-.139.694Z" transform="translate(-330.627 -392.797)" fill="#f2f2f2"/>
    <path id="Path_7900" data-name="Path 7900" d="M291.222,431.23a1.9,1.9,0,0,0-.043.3L283.43,436l-1.883-1.084-2.008,2.629,3.148,2.243a1.443,1.443,0,0,0,1.731-.042l7.99-6.3a1.893,1.893,0,1,0-1.186-2.208Z" transform="translate(-260.953 -377.169)" fill="#ffb8b8"/>
    <path id="Path_7901" data-name="Path 7901" d="M265.875,448.807l-2.5,3.246a.812.812,0,0,1-1.227.067l-2.835-2.944a2.254,2.254,0,0,1,2.765-3.561l3.556,1.988a.812.812,0,0,1,.246,1.2Z" transform="translate(-243.656 -389.768)" fill="#0e0071"/>
    <circle id="Ellipse_3705" data-name="Ellipse 3705" cx="4.43" cy="4.43" r="4.43" transform="translate(7.533 42.428)" fill="#ffb8b8"/>
    <path id="Path_7902" data-name="Path 7902" d="M89.5,572.689h2.211l1.052-8.53H89.5Z" transform="translate(-73.358 -462.396)" fill="#ffb8b8"/>
    <path id="Path_7903" data-name="Path 7903" d="M262.878,745.607h4.355a2.776,2.776,0,0,1,2.775,2.776v.09h-7.131Z" transform="translate(-247.297 -636.036)" fill="#2f2e41"/>
    <path id="Path_7904" data-name="Path 7904" d="M47.5,572.689h2.211l1.052-8.53H47.5Z" transform="translate(-38.934 -462.396)" fill="#ffb8b8"/>
    <path id="Path_7905" data-name="Path 7905" d="M220.878,745.607h4.355a2.775,2.775,0,0,1,2.775,2.776v.09h-7.131Z" transform="translate(-212.873 -636.036)" fill="#2f2e41"/>
    <path id="Path_7906" data-name="Path 7906" d="M225.609,600.266l-2.256-17.453a.089.089,0,0,0-.091-.084.086.086,0,0,0-.089.087l-.648,17.2a.809.809,0,0,1-.811.781h-2.679a.807.807,0,0,1-.811-.792l-.7-28.656,11.987.12.3,28.748a.812.812,0,0,1-.285.6.8.8,0,0,1-.624.188l-2.6.007A.812.812,0,0,1,225.609,600.266Z" transform="translate(-210.128 -493.211)" fill="#2f2e41"/>
    <path id="Path_7907" data-name="Path 7907" d="M211.675,455.781a.811.811,0,0,1-.512-.637l-.12-15.749c-.53-3.507-1.156-6.943,1.909-8.719l.27-.811a.453.453,0,0,1,.415-.308l5.816-.166a.447.447,0,0,1,.427.273l.433,1.01.154.088a8.552,8.552,0,0,1,4.257,8.444l-.333,2.808-.236,13.121a.819.819,0,0,1-.426.7,11.036,11.036,0,0,1-5.333,1.242A19.978,19.978,0,0,1,211.675,455.781Z" transform="translate(-204.452 -376.859)" fill="#0e0071"/>
    <path id="Path_7908" data-name="Path 7908" d="M220.079,376.826a4.727,4.727,0,1,1,.886-9.348,5.433,5.433,0,0,1,3.242-.888,3.178,3.178,0,0,1,2.683,1.833A2.269,2.269,0,0,1,225.8,371.3a4.1,4.1,0,0,1-2.163.031,3.226,3.226,0,0,0-2.139.189c-.629.373-.911,1.372-.348,1.838a1.937,1.937,0,0,1,.556,2.132A2.119,2.119,0,0,1,220.079,376.826Z" transform="translate(-208.26 -325.373)" fill="#2f2e41"/>
    <path id="Path_7909" data-name="Path 7909" d="M204.82,760.2H176.68a.18.18,0,1,1,0-.361H204.82a.18.18,0,0,1,0,.361Z" transform="translate(-176.5 -647.699)" fill="#ccc"/>
  </g>
</svg>
